<?xml version="1.0" encoding="UTF-8" standalone="no"?>
<!-- Created with Inkscape (http://www.inkscape.org/) -->

<svg
   width="133mm"
   height="38mm"
   viewBox="0 0 133 38"
   version="1.1"
   id="svg5"
   xml:space="preserve"
   inkscape:version="1.2.2 (732a01da63, 2022-12-09)"
   sodipodi:docname="splash_title.svg"
   inkscape:export-filename="splash_title.png"
   inkscape:export-xdpi="95.488724"
   inkscape:export-ydpi="95.488724"
   xmlns:inkscape="http://www.inkscape.org/namespaces/inkscape"
   xmlns:sodipodi="http://sodipodi.sourceforge.net/DTD/sodipodi-0.dtd"
   xmlns:xlink="http://www.w3.org/1999/xlink"
   xmlns="http://www.w3.org/2000/svg"
   xmlns:svg="http://www.w3.org/2000/svg"><sodipodi:namedview
     id="namedview7"
     pagecolor="#ffffff"
     bordercolor="#666666"
     borderopacity="1.0"
     inkscape:showpageshadow="2"
     inkscape:pageopacity="0.0"
     inkscape:pagecheckerboard="0"
     inkscape:deskcolor="#d1d1d1"
     inkscape:document-units="mm"
     showgrid="false"
     inkscape:zoom="2"
     inkscape:cx="276.75"
     inkscape:cy="115.5"
     inkscape:window-width="1920"
     inkscape:window-height="1009"
     inkscape:window-x="-8"
     inkscape:window-y="-8"
     inkscape:window-maximized="1"
     inkscape:current-layer="layer1" /><defs
     id="defs2"><linearGradient
       inkscape:collect="always"
       id="linearGradient1874"><stop
         style="stop-color:#4f4f4f;stop-opacity:1;"
         offset="0.3901099"
         id="stop1870" /><stop
         style="stop-color:#888888;stop-opacity:0;"
         offset="1"
         id="stop1872" /></linearGradient><filter
       inkscape:collect="always"
       style="color-interpolation-filters:sRGB"
       id="filter1063"
       x="-0.0049587277"
       y="-0.019090813"
       width="1.0099175"
       height="1.0381816"><feGaussianBlur
         inkscape:collect="always"
         stdDeviation="0.26136046"
         id="feGaussianBlur1065" /></filter><linearGradient
       inkscape:collect="always"
       xlink:href="#linearGradient1874"
       id="linearGradient1876"
       x1="0.13229169"
       y1="32.130337"
       x2="110.8604"
       y2="32.130337"
       gradientUnits="userSpaceOnUse"
       gradientTransform="matrix(1.0435589,0,0,1.5575951,0.02829472,-15.723106)" /><linearGradient
       id="_Linear1"
       x1="0"
       y1="0"
       x2="1"
       y2="0"
       gradientUnits="userSpaceOnUse"
       gradientTransform="matrix(329.871,-316.411,316.411,329.871,29009.4,15932.5)"><stop
         offset="0"
         style="stop-color:rgb(249,66,238);stop-opacity:1"
         id="stop13534" /><stop
         offset="0.6"
         style="stop-color:rgb(118,155,246);stop-opacity:1"
         id="stop13536" /><stop
         offset="1"
         style="stop-color:rgb(6,229,255);stop-opacity:1"
         id="stop13538" /></linearGradient></defs><g
     inkscape:label="Calque 1"
     inkscape:groupmode="layer"
     id="layer1"><path
       id="path1061"
       style="mix-blend-mode:normal;fill:#000000;fill-opacity:0.304196;stroke-width:0.56328;stroke-linecap:round;stroke-linejoin:round;filter:url(#filter1063);stop-color:#000000"
       d="M 109.90647,1.4996501 C 73.272859,1.521708 36.582218,1.5105021 -0.07183024,1.5105021 V 34.35656 L 110.19196,34.35096 c 0.16397,-0.01048 0.0132,-0.0037 0.0132,-0.0037 9.00188,-0.161932 16.21551,-7.46358 16.2202,-16.418119 7e-5,-9.0737215 -7.3957,-16.4294686 -16.51889,-16.4294889 z"
       sodipodi:nodetypes="cccccccc"
       transform="matrix(1.0435589,0,0,1.079404,0.03045182,2.6958939e-4)" /><path
       id="rect908"
       style="fill:#222426;fill-opacity:1;stroke-width:0.597826;stroke-linecap:round;stroke-linejoin:round;stop-color:#000000"
       d="M 0.03047314,1.60281e-4 0.03314818,35.51412 C 38.425171,35.50253 76.862849,35.53433 115.22909,35.51522 c 9.39399,-0.174791 16.93585,-8.067375 16.94075,-17.73294 8e-5,-9.7942106 -7.73527,-17.78563503 -17.25585,-17.78565697 C 74.917792,0.02472688 34.306489,-0.01406415 0.03047314,1.60281e-4 Z"
       sodipodi:nodetypes="cccccc" /><rect
       style="fill:url(#linearGradient1876);fill-opacity:1;stroke-width:0.720334;stroke-linecap:round;stroke-linejoin:round;stop-color:#000000;stroke:none"
       id="rect1845"
       width="115.22046"
       height="1.723636"
       x="0.030451842"
       y="33.79026" /><g
       transform="matrix(0.07044695,0,0,0.07044695,-1985.4147,-1246.1366)"
       id="g13532"
       style="clip-rule:evenodd;fill-rule:evenodd;stroke-linejoin:round;stroke-miterlimit:2">
        <g
   transform="matrix(1,0,0,1.57456,0,-8942.98)"
   id="g13530">
            <g
   transform="matrix(1.03131,0,0,0.654986,-265.835,6727.41)"
   id="g13528">
                <g
   id="symbol_color">
                    <path
   d="m 29138,15601.3 c 106.7,-7.7 199.7,72.6 207.4,179.4 7.7,106.7 -72.6,199.7 -179.4,207.4 -106.7,7.8 -199.7,-72.6 -207.4,-179.4 -7.7,-106.7 72.6,-199.7 179.4,-207.4 z m -146.4,148 c 3.6,-10.2 11,-17.2 20.3,-17.2 9.4,0 16.1,6.8 18.4,17.2 6.9,32.1 -4.9,51 -2.3,80.8 1.6,17.6 14.4,31.4 35.3,29.9 18,-1.3 29.1,-20.8 27.4,-33.2 -3.2,-23.5 -23.9,-27.8 -27.2,-63.3 -1.8,-18.8 3.3,-34.6 18.6,-42.1 15.6,-7.5 35.5,-1.6 44.3,13.3 8.5,14.4 14.8,21.6 24.3,21.6 9.4,0 17.5,-10.3 20.7,-19.2 3.2,-8.7 10.4,-27.9 32.2,-29.5 21,-1.5 35.2,20.5 36.4,37 4.1,56.9 -36.6,62.7 -40.3,96 -2.8,25.4 18.2,37.8 30.7,39 12.5,1.2 32.9,-5.4 37.8,-27.4 5.9,-26.3 -0.1,-65.3 3.2,-82.2 3.4,-17 13.2,-22 22.5,-22.7 9.3,-0.7 19.1,4.7 21.9,16.9 2,9 2.1,13.6 2.4,18.5 6.9,94.3 -65.5,171.8 -154.2,178.2 -97.1,7.1 -171.6,-63.1 -178.2,-154.1 -1.8,-25.3 2.3,-47.2 5.8,-57.5 z"
   style="fill:url(#_Linear1)"
   id="path13525" />
                </g>
            </g>
        </g>
    </g></g></svg>
