<?xml version="1.0" encoding="UTF-8" standalone="no"?>
<svg
   xmlns:serif="http://www.serif.com/"
   xmlns:dc="http://purl.org/dc/elements/1.1/"
   xmlns:cc="http://creativecommons.org/ns#"
   xmlns:rdf="http://www.w3.org/1999/02/22-rdf-syntax-ns#"
   xmlns:svg="http://www.w3.org/2000/svg"
   xmlns="http://www.w3.org/2000/svg"
   xmlns:sodipodi="http://sodipodi.sourceforge.net/DTD/sodipodi-0.dtd"
   xmlns:inkscape="http://www.inkscape.org/namespaces/inkscape"
   width="64"
   height="64"
   viewBox="0 0 8192 8192"
   version="1.1"
   xml:space="preserve"
   style="clip-rule:evenodd;fill-rule:evenodd;stroke-linejoin:round;stroke-miterlimit:2"
   id="svg247"
   sodipodi:docname="mmcup.svg"
   inkscape:version="0.92.4 (5da689c313, 2019-01-14)"
   inkscape:export-filename="D:\Dev\godot-procedural-textures\material_maker\tools\achievements\mmcup.png"
   inkscape:export-xdpi="96"
   inkscape:export-ydpi="96"><metadata
   id="metadata251"><rdf:RDF><cc:Work
       rdf:about=""><dc:format>image/svg+xml</dc:format><dc:type
         rdf:resource="http://purl.org/dc/dcmitype/StillImage" /><dc:title></dc:title></cc:Work></rdf:RDF></metadata><sodipodi:namedview
   pagecolor="#ffffff"
   bordercolor="#666666"
   borderopacity="1"
   objecttolerance="10"
   gridtolerance="10"
   guidetolerance="10"
   inkscape:pageopacity="0"
   inkscape:pageshadow="2"
   inkscape:window-width="1587"
   inkscape:window-height="942"
   id="namedview249"
   showgrid="false"
   units="px"
   inkscape:zoom="13.393433"
   inkscape:cx="31.970814"
   inkscape:cy="31.853678"
   inkscape:window-x="0"
   inkscape:window-y="0"
   inkscape:window-maximized="0"
   inkscape:current-layer="svg247" />
    <g
   id="g1295"
   transform="matrix(60.910838,0,0,60.910838,193.93477,122.84129)"><g
     transform="matrix(1.0000012,0,0,1.0000012,-618.00023,0)"
     id="path817">
                <path
   inkscape:connector-curvature="0"
   id="path4"
   style="fill:url(#_Linear1);fill-rule:nonzero"
   d="m 644.756,18.016 c -3.512,-0.322 -7.014,0.639 -10.049,3.126 -4.128,3.381 -6.478,9.067 -6.834,15.23 -0.329,5.712 0.956,11.95 3.878,17.566 3.039,5.841 7.297,9.931 11.769,11.928 2.161,0.965 4.412,1.452 6.631,1.415 0,0 0.088,0.799 0.088,0.799 0.039,0.468 0.09,0.935 0.155,1.401 0.005,0.036 0.01,0.071 0.016,0.107 l 0.29,1.706 c 0.01,0.057 0.021,0.114 0.034,0.171 2.139,9.653 9.724,17.614 19.875,21.022 l -0.002,0.142 c 0,0.676 0.121,1.366 0.374,2.042 -2.203,1.715 -3.359,3.901 -3.454,6.005 h -7.131 c -1.946,0 -3.523,1.578 -3.523,3.524 v 4.251 c -1.308,1.032 -2.147,2.631 -2.147,4.424 0,3.11 2.525,5.636 5.635,5.636 0,0 43.278,0 43.278,0 3.11,0 5.635,-2.526 5.635,-5.636 0,-1.793 -0.839,-3.392 -2.147,-4.424 V 104.2 c 0,-1.946 -1.577,-3.524 -3.523,-3.524 h -7.131 c -0.097,-2.103 -1.253,-4.288 -3.456,-6.003 0.253,-0.674 0.374,-1.361 0.376,-2.037 L 693.392,92.5 c 10.156,-3.411 17.741,-11.378 19.875,-21.037 0.012,-0.056 0.023,-0.113 0.033,-0.169 l 0.29,-1.706 c 0.006,-0.036 0.011,-0.071 0.016,-0.107 0.066,-0.476 0.119,-0.953 0.158,-1.431 -0.003,0.03 0.085,-0.769 0.085,-0.769 2.219,0.037 4.47,-0.45 6.631,-1.415 4.472,-1.997 8.73,-6.087 11.769,-11.928 2.922,-5.616 4.207,-11.854 3.878,-17.566 -0.356,-6.163 -2.706,-11.849 -6.834,-15.23 -3.035,-2.487 -6.537,-3.448 -10.049,-3.126 l 0.169,-1.547 c 0.109,-0.996 -0.21,-1.99 -0.878,-2.736 -0.669,-0.745 -1.623,-1.171 -2.624,-1.171 h -67.822 c -1.001,0 -1.955,0.426 -2.624,1.171 -0.668,0.746 -0.987,1.74 -0.878,2.736 z m 76.105,11.098 c 0.818,0.012 1.574,0.29 2.226,0.825 0,0 0,0 0,0 1.654,1.355 2.445,3.804 2.617,6.787 0.206,3.574 -0.645,7.765 -2.624,11.57 -1.861,3.575 -4.345,6.135 -6.874,7.264 -0.378,0.169 -0.752,0.305 -1.118,0.402 0,0 2.853,-26.049 2.853,-26.049 0.151,-0.078 0.302,-0.151 0.453,-0.219 0.853,-0.38 1.68,-0.591 2.467,-0.58 z m -77.722,0 c 0.787,-0.011 1.614,0.2 2.467,0.58 0.151,0.068 0.302,0.141 0.452,0.219 10e-4,0 2.854,26.049 2.854,26.049 -0.366,-0.097 -0.74,-0.233 -1.118,-0.402 -2.529,-1.129 -5.013,-3.689 -6.874,-7.264 -1.979,-3.805 -2.83,-7.995 -2.624,-11.57 0.172,-2.983 0.963,-5.432 2.617,-6.787 0.652,-0.535 1.408,-0.813 2.226,-0.825 z" />
            </g><g
     id="g33"
     transform="matrix(1.0000012,0,0,1.0000012,-618.00023,0)">
                <g
   id="g858">
                    <path
   inkscape:connector-curvature="0"
   style="fill:#e2be4c;fill-rule:nonzero"
   d="m 660.396,110.763 h -0.035 c -1.166,0 -2.112,0.947 -2.112,2.112 0,1.166 0.946,2.112 2.112,2.112 h 43.278 c 1.166,0 2.112,-0.946 2.112,-2.112 0,-1.165 -0.946,-2.112 -2.112,-2.112 h -0.035 V 104.2 h -12.385 c 1.13,-0.967 1.733,-2.092 1.738,-3.241 -0.004,-2.034 -1.886,-3.935 -4.993,-5.042 0.085,-0.227 0.144,-0.459 0.178,-0.693 1.116,-0.737 1.725,-1.654 1.728,-2.598 -0.003,-0.876 -0.528,-1.73 -1.5,-2.439 10.858,-2.106 19.314,-9.784 21.456,-19.484 l 0.29,-1.705 c 0.058,-0.417 0.104,-0.836 0.138,-1.255 l 0.497,-4.541 c 2.676,0.93 5.576,0.66 8.292,-0.553 3.854,-1.721 7.462,-5.304 10.08,-10.337 2.619,-5.033 3.781,-10.619 3.486,-15.738 -0.295,-5.118 -2.12,-9.898 -5.548,-12.707 -3.429,-2.809 -7.651,-2.982 -11.504,-1.262 -0.127,0.057 -0.253,0.121 -0.38,0.182 l 0.734,-6.702 h -67.822 l 0.734,6.702 c -0.127,-0.061 -0.253,-0.125 -0.38,-0.182 -3.853,-1.72 -8.075,-1.547 -11.504,1.262 -3.428,2.809 -5.253,7.589 -5.548,12.707 -0.295,5.119 0.867,10.705 3.486,15.738 2.618,5.033 6.226,8.616 10.08,10.337 2.716,1.213 5.616,1.483 8.292,0.553 l 0.497,4.541 c 0.034,0.419 0.08,0.838 0.138,1.255 l 0.29,1.705 c 2.149,9.699 10.61,17.373 21.47,19.473 -0.981,0.711 -1.511,1.569 -1.514,2.45 10e-4,0.948 0.613,1.868 1.735,2.607 0.031,0.23 0.086,0.458 0.166,0.681 -3.107,1.109 -4.986,3.01 -4.988,5.045 10e-4,1.148 0.6,2.273 1.726,3.241 h -12.373 z m 60.515,-85.171 c 1.619,0.023 3.118,0.564 4.409,1.621 2.295,1.881 3.662,5.171 3.901,9.31 0.239,4.138 -0.724,8.995 -3.016,13.399 -2.291,4.404 -5.447,7.464 -8.563,8.855 -2.307,1.03 -4.522,1.16 -6.45,0.395 l 3.433,-31.341 c 0.771,-0.553 1.553,-1.005 2.333,-1.354 1.363,-0.608 2.694,-0.903 3.953,-0.885 z m -77.822,0 c 1.259,-0.018 2.59,0.277 3.953,0.885 0.78,0.349 1.562,0.801 2.333,1.354 l 3.433,31.341 c -1.928,0.765 -4.143,0.635 -6.45,-0.395 -3.116,-1.391 -6.272,-4.451 -8.563,-8.855 -2.292,-4.404 -3.255,-9.261 -3.016,-13.399 0.239,-4.139 1.606,-7.429 3.901,-9.31 1.291,-1.057 2.79,-1.598 4.409,-1.621 z"
   serif:id="path817"
   id="path8171" />
                    <clipPath
   id="_clip2">
                        <path
   style="clip-rule:nonzero"
   inkscape:connector-curvature="0"
   d="m 660.396,110.763 h -0.035 c -1.166,0 -2.112,0.947 -2.112,2.112 0,1.166 0.946,2.112 2.112,2.112 h 43.278 c 1.166,0 2.112,-0.946 2.112,-2.112 0,-1.165 -0.946,-2.112 -2.112,-2.112 h -0.035 V 104.2 h -12.385 c 1.13,-0.967 1.733,-2.092 1.738,-3.241 -0.004,-2.034 -1.886,-3.935 -4.993,-5.042 0.085,-0.227 0.144,-0.459 0.178,-0.693 1.116,-0.737 1.725,-1.654 1.728,-2.598 -0.003,-0.876 -0.528,-1.73 -1.5,-2.439 10.858,-2.106 19.314,-9.784 21.456,-19.484 l 0.29,-1.705 c 0.058,-0.417 0.104,-0.836 0.138,-1.255 l 0.497,-4.541 c 2.676,0.93 5.576,0.66 8.292,-0.553 3.854,-1.721 7.462,-5.304 10.08,-10.337 2.619,-5.033 3.781,-10.619 3.486,-15.738 -0.295,-5.118 -2.12,-9.898 -5.548,-12.707 -3.429,-2.809 -7.651,-2.982 -11.504,-1.262 -0.127,0.057 -0.253,0.121 -0.38,0.182 l 0.734,-6.702 h -67.822 l 0.734,6.702 c -0.127,-0.061 -0.253,-0.125 -0.38,-0.182 -3.853,-1.72 -8.075,-1.547 -11.504,1.262 -3.428,2.809 -5.253,7.589 -5.548,12.707 -0.295,5.119 0.867,10.705 3.486,15.738 2.618,5.033 6.226,8.616 10.08,10.337 2.716,1.213 5.616,1.483 8.292,0.553 l 0.497,4.541 c 0.034,0.419 0.08,0.838 0.138,1.255 l 0.29,1.705 c 2.149,9.699 10.61,17.373 21.47,19.473 -0.981,0.711 -1.511,1.569 -1.514,2.45 10e-4,0.948 0.613,1.868 1.735,2.607 0.031,0.23 0.086,0.458 0.166,0.681 -3.107,1.109 -4.986,3.01 -4.988,5.045 10e-4,1.148 0.6,2.273 1.726,3.241 h -12.373 z m 60.515,-85.171 c 1.619,0.023 3.118,0.564 4.409,1.621 2.295,1.881 3.662,5.171 3.901,9.31 0.239,4.138 -0.724,8.995 -3.016,13.399 -2.291,4.404 -5.447,7.464 -8.563,8.855 -2.307,1.03 -4.522,1.16 -6.45,0.395 l 3.433,-31.341 c 0.771,-0.553 1.553,-1.005 2.333,-1.354 1.363,-0.608 2.694,-0.903 3.953,-0.885 z m -77.822,0 c 1.259,-0.018 2.59,0.277 3.953,0.885 0.78,0.349 1.562,0.801 2.333,1.354 l 3.433,31.341 c -1.928,0.765 -4.143,0.635 -6.45,-0.395 -3.116,-1.391 -6.272,-4.451 -8.563,-8.855 -2.292,-4.404 -3.255,-9.261 -3.016,-13.399 0.239,-4.139 1.606,-7.429 3.901,-9.31 1.291,-1.057 2.79,-1.598 4.409,-1.621 z"
   serif:id="path817"
   id="path8172" />
                    </clipPath>
                    <g
   id="g30"
   clip-path="url(#_clip2)">
                        <path
   inkscape:connector-curvature="0"
   id="path10"
   style="fill:url(#_Linear3)"
   d="m 682,97.529 c 11.516,0 21.707,-6.949 23.879,-17.488 -2.685,4.775 -12.081,10.723 -23.598,10.723 -11.516,0 -19.186,-4.453 -23.66,-10.723 1.486,11.72 11.863,17.488 23.379,17.488 z" />
                        <g
   id="g14"
   transform="translate(0,11.3387)">
                            <path
   inkscape:connector-curvature="0"
   id="path12"
   style="fill:url(#_Linear4)"
   d="m 666.099,92.861 h 31.17 c 4.349,-3.06 7.509,-7.479 8.61,-12.82 -2.685,4.775 -12.363,10.751 -23.879,10.751 -11.516,0 -18.905,-4.481 -23.379,-10.751 0.716,5.649 3.498,9.916 7.478,12.82 z" />
                        </g>
                        <g
   id="g18"
   transform="matrix(0.931795,0,0,0.969048,46.5232,1.04689)">
                            <ellipse
   id="ellipse16"
   style="fill:url(#_Linear5)"
   ry="28.186001"
   rx="29.518"
   cy="62.008999"
   cx="682.11102" />
                        </g>
                        <g
   id="g22"
   transform="matrix(0.584629,0.0601615,-0.102365,0.994747,300.963,-44.4283)">
                            <path
   inkscape:connector-curvature="0"
   id="path20"
   style="fill:url(#_Linear6)"
   d="m 729.895,20.691 h -16.929 l -0.518,45.032 17.447,5.109 z" />
                        </g>
                        <g
   id="g26"
   transform="matrix(-0.584629,0.0601615,0.102365,0.994747,1063.26,-44.4283)">
                            <path
   inkscape:connector-curvature="0"
   id="path24"
   style="fill:url(#_Linear7)"
   d="m 729.895,20.691 h -16.929 l -0.518,45.032 17.447,5.109 z" />
                        </g>
                        <path
   inkscape:connector-curvature="0"
   id="path28"
   style="fill:#ffe656"
   d="m 718.586,42.005 v 13.061 l 14.38,2.193 1.947,-12.764 z m -77.542,-11.824 -15.876,-2.421 -1.946,12.764 17.822,2.717 z" />
                    </g>
                </g>
            </g><g
     id="g37"
     transform="matrix(2.7346305,0,0,1.0000012,-1770.3603,-0.27487747)">
                <path
   inkscape:connector-curvature="0"
   id="path35"
   style="fill:#f9eca1"
   d="m 682.111,19.283 c 0,-0.93 -0.276,-1.684 -0.616,-1.684 h -21.349 c -0.34,0 -0.616,0.754 -0.616,1.684 0,0.929 0.276,1.683 0.616,1.683 h 21.349 c 0.34,0 0.616,-0.754 0.616,-1.683 z" />
            </g><g
     id="g41"
     transform="matrix(1.8489402,0,0,1.0000012,-1176.2194,94.012705)">
                <path
   inkscape:connector-curvature="0"
   id="path39"
   style="fill:#f9eca1"
   d="m 682.111,19.283 c 0,-0.93 -0.408,-1.684 -0.91,-1.684 h -20.76 c -0.503,0 -0.911,0.754 -0.911,1.684 0,0.929 0.408,1.683 0.911,1.683 h 20.76 c 0.502,0 0.91,-0.754 0.91,-1.683 z" />
            </g><g
     id="g45"
     transform="matrix(-1.0000012,0,0,1.0000012,746.32097,0)">
                <path
   inkscape:connector-curvature="0"
   id="path43"
   style="fill:#f9eca1"
   d="m 711.876,22.248 -12.751,0.168 c 0,0 -0.217,4.813 -0.543,11.407 0,0 6.505,7.276 6.505,17.826 0,13.983 -8.835,20.392 -8.835,20.392 0,0 -1.857,5.4 -3.172,8.404 -2.194,5.01 -2.194,5.01 3.172,3.462 6.092,-2.106 10.348,-8.706 10.837,-13.758 2.75,-28.402 4.787,-47.901 4.787,-47.901 z" />
            </g><g
     id="g49"
     transform="matrix(1.0000012,0,0,1.0000012,-618.00023,0)">
                <path
   inkscape:connector-curvature="0"
   id="path47"
   style="fill:#ffffff"
   d="m 655.943,22.294 c 0.11,1.057 2.11,20.251 4.782,47.855 0.489,5.052 4.745,11.652 10.838,13.758 0.379,0.11 0.731,0.212 1.059,0.304 0.013,1.012 -1.26,0.645 -4.549,-0.304 -6.093,-2.106 -10.348,-8.706 -10.838,-13.758 -2.749,-28.402 -4.787,-47.901 -4.787,-47.901 z" />
            </g><g
     id="g53"
     transform="matrix(1.0000012,0,0,1.0000012,-618.00023,0)">
                <path
   inkscape:connector-curvature="0"
   id="path51"
   style="fill:#ffffff"
   d="m 664.939,20.645 c -0.74,-0.176 -1.292,-0.843 -1.292,-1.637 0,-0.795 0.552,-1.461 1.292,-1.638 -0.125,-0.03 -0.257,-0.046 -0.391,-0.046 h -11.93 c -0.929,0 -1.684,0.754 -1.684,1.684 0,0.929 0.755,1.683 1.684,1.683 h 11.93 c 0.134,0 0.266,-0.016 0.391,-0.046 z" />
            </g><g
     id="g57"
     transform="matrix(1.0000012,0,0,1.0000012,-608.00028,94.287363)">
                <path
   inkscape:connector-curvature="0"
   id="path55"
   style="fill:#ffffff"
   d="m 664.939,20.645 c -0.74,-0.176 -1.292,-0.843 -1.292,-1.637 0,-0.795 0.552,-1.461 1.292,-1.638 -0.125,-0.03 -0.257,-0.046 -0.391,-0.046 h -11.93 c -0.929,0 -1.684,0.754 -1.684,1.684 0,0.929 0.755,1.683 1.684,1.683 h 11.93 c 0.134,0 0.266,-0.016 0.391,-0.046 z" />
            </g><g
     id="g61"
     transform="matrix(1.0000012,0,0,1.0000012,-616.05322,0)">
                <path
   inkscape:connector-curvature="0"
   id="path59"
   style="fill:#ffffff"
   d="M 709.335,17.324 H 698.77 c 0.929,0 1.683,0.754 1.683,1.684 0,0.929 -0.754,1.683 -1.683,1.683 h 10.565 c 0.93,0 1.684,-0.754 1.684,-1.683 0,-0.93 -0.754,-1.684 -1.684,-1.684 z" />
            </g><g
     id="g65"
     transform="matrix(1.0000012,0,0,1.0000012,-626.05316,94.287363)">
                <path
   inkscape:connector-curvature="0"
   id="path63"
   style="fill:#ffffff"
   d="M 709.335,17.324 H 698.77 c 0.929,0 1.683,0.754 1.683,1.684 0,0.929 -0.754,1.683 -1.683,1.683 h 10.565 c 0.93,0 1.684,-0.754 1.684,-1.683 0,-0.93 -0.754,-1.684 -1.684,-1.684 z" />
            </g><g
     id="g69"
     transform="matrix(-0.70725282,0,0,0.70725282,548.54587,92.288072)">
                <path
   inkscape:connector-curvature="0"
   id="path67"
   style="fill:url(#_Linear8)"
   d="m 711.351,18.16 -11.979,0.168 c 0,0 -0.145,3.1 -0.376,7.795 h 12.355 c 0.488,-5.035 0,-7.963 0,-7.963 z" />
            </g><g
     id="g73"
     transform="matrix(1.0000012,0,0,1.0000012,-618.49378,0)">
                <path
   inkscape:connector-curvature="0"
   id="path71"
   style="fill:#f9eca1"
   d="m 711.743,22.08 -12.751,0.168 c 0,0 -0.204,4.893 -0.513,11.575 0,0 6.503,4.949 6.503,19.342 0,8.377 -4.003,14.192 -9.085,18.796 -0.598,2.652 -1.609,5.725 -2.817,8.484 -2.194,5.01 -2.194,5.01 3.172,3.462 6.092,-2.106 10.348,-8.706 10.837,-13.758 2.75,-28.402 4.654,-48.069 4.654,-48.069 z" />
            </g><g
     id="g77"
     transform="matrix(-1.0000012,0,0,1.0000012,745.70055,0)">
                <path
   inkscape:connector-curvature="0"
   id="path75"
   style="fill:#ffffff"
   d="m 655.943,22.294 c 0.11,1.057 2.11,20.251 4.782,47.855 0.489,5.052 4.745,11.652 10.838,13.758 0.379,0.11 0.731,0.212 1.059,0.304 0.013,1.012 -1.26,0.645 -4.549,-0.304 -6.093,-2.106 -10.348,-8.706 -10.838,-13.758 -2.749,-28.402 -4.787,-47.901 -4.787,-47.901 z" />
            </g><g
     id="g81"
     transform="matrix(0.57823439,0,0,0.57823439,-333.96282,42.163787)">
                <path
   inkscape:connector-curvature="0"
   id="path79"
   style="fill:url(#_Linear9)"
   d="m 671.78,99.508 c 0,-3.619 4.367,-4.639 4.602,-4.685 2.145,-0.35 2.145,-0.35 1.268,0.783 -0.598,0.772 -1.528,1.221 -1.528,3.902 0,2.68 0.93,3.632 1.528,4.529 0.877,1.314 -3.33,0.98 -4.31,0 -0.874,-0.874 -1.56,-2.407 -1.56,-4.529 z" />
            </g><g
     id="g85"
     transform="matrix(-0.57823439,0,0,0.57823439,461.59622,42.163787)">
                <path
   inkscape:connector-curvature="0"
   id="path83"
   style="fill:url(#_Linear10)"
   d="m 671.78,99.508 c 0,-3.619 4.367,-4.639 4.602,-4.685 2.145,-0.35 2.145,-0.35 1.268,0.783 -0.598,0.772 -1.528,1.221 -1.528,3.902 0,2.68 0.93,3.632 1.528,4.529 0.877,1.314 -3.33,0.98 -4.31,0 -0.874,-0.874 -1.56,-2.407 -1.56,-4.529 z" />
            </g><g
     id="g89"
     transform="matrix(1.0000012,0,0,1.0000012,-617.88799,-0.02814735)">
                <path
   inkscape:connector-curvature="0"
   id="path87"
   style="fill:#e2be4c"
   d="m 688.15,92.504 c 0,-0.473 -0.209,-0.848 -0.509,-1.144 -0.548,0.28 -1.566,0.453 -2.063,0.514 0.039,0.174 0.061,0.381 0.061,0.63 0,1.221 -0.538,1.654 -0.883,2.062 -0.508,0.599 1.925,0.447 2.492,0 0.505,-0.397 0.902,-1.095 0.902,-2.062 z m -12.302,0 c 0,-0.473 0.208,-0.848 0.509,-1.144 0.547,0.28 1.566,0.453 2.063,0.514 -0.039,0.174 -0.061,0.381 -0.061,0.63 0,1.221 0.537,1.654 0.883,2.062 0.507,0.599 -1.925,0.447 -2.492,0 -0.505,-0.397 -0.902,-1.095 -0.902,-2.062 z" />
            </g><g
     id="g93"
     transform="matrix(0.70725282,0,0,0.70725282,-420.71861,92.288072)">
                <path
   inkscape:connector-curvature="0"
   id="path91"
   style="fill:url(#_Linear11)"
   d="m 711.351,18.17 -11.979,0.158 c 0,0 -0.145,3.1 -0.376,7.795 h 12.355 c 0.488,-5.035 0,-7.953 0,-7.953 z" />
            </g><g
     id="g97"
     transform="matrix(0.50738293,0,0,0.44113375,-281.98055,25.579985)">
                <path
   inkscape:connector-curvature="0"
   id="path95"
   style="fill:url(#_Linear12)"
   d="m 652.593,62.009 h 59.036 c 0,15.556 -13.226,28.185 -29.518,28.185 -16.291,0 -29.518,-12.629 -29.518,-28.185 z" />
            </g><g
     transform="matrix(0.2880569,0,0,0.2880569,0.69123296,-12.699474)"
     id="path2">
                <path
   inkscape:connector-curvature="0"
   id="path99"
   style="fill:url(#_Linear13)"
   d="m 214.468,140.651 c 40.512,-2.937 75.753,27.56 78.69,68.073 2.936,40.512 -27.561,75.753 -68.073,78.69 -40.512,2.937 -75.753,-27.56 -78.69,-68.073 -2.937,-40.512 27.56,-75.753 68.073,-78.69 z m -55.573,56.175 c 1.356,-3.916 4.217,-6.551 7.756,-6.551 3.539,0 6.1,2.56 6.928,6.551 2.636,12.124 -1.807,19.353 -0.828,30.648 0.602,6.627 5.421,11.898 13.403,11.371 6.777,-0.528 10.994,-7.907 10.392,-12.651 -1.28,-8.886 -9.112,-10.542 -10.316,-24.021 -0.678,-7.154 1.204,-13.103 7.078,-15.964 5.873,-2.862 13.404,-0.603 16.717,5.045 3.313,5.497 5.647,8.208 9.262,8.208 3.614,0 6.626,-3.916 7.907,-7.305 1.129,-3.313 3.915,-10.617 12.198,-11.22 7.982,-0.527 13.329,7.832 13.781,14.082 1.581,21.536 -13.856,23.795 -15.287,36.446 -1.054,9.639 6.928,14.307 11.672,14.759 4.744,0.452 12.5,-2.033 14.307,-10.392 2.259,-9.939 0,-24.774 1.205,-31.174 1.28,-6.476 5.045,-8.359 8.585,-8.585 3.539,-0.301 7.228,1.732 8.283,6.401 0.753,3.388 0.828,5.12 0.903,7.003 2.636,35.768 -24.849,65.211 -58.509,67.621 -36.822,2.711 -65.136,-23.946 -67.621,-58.51 -0.677,-9.563 0.829,-17.921 2.184,-21.762 z" />
            </g><g
     transform="matrix(1.0000012,0,0,1.0000012,-618.00023,0)"
     serif:id="path2"
     id="path21">
                <path
   inkscape:connector-curvature="0"
   id="path102"
   style="fill:url(#_Linear14)"
   d="m 663.806,49.784 c 0.007,0.16 0.016,0.321 0.028,0.483 0.716,9.956 8.871,17.634 19.478,16.854 8.977,-0.643 16.429,-7.96 16.883,-17.219 0.489,10.091 -7.334,18.327 -16.883,19.01 -10.607,0.781 -18.762,-6.897 -19.478,-16.854 -0.057,-0.794 -0.061,-1.56 -0.028,-2.274 z m 27.809,-4.569 0.005,0.054 c 0.437,5.953 -3.64,6.793 -4.334,10.071 -0.094,-0.409 -0.124,-0.863 -0.069,-1.364 0.37,-3.272 3.992,-4.131 4.398,-8.761 z m -19.262,0.492 c 0.397,3.728 2.592,4.228 2.955,6.75 0.045,0.356 -0.003,0.763 -0.135,1.173 -0.609,-2.048 -2.519,-2.753 -2.836,-6.3 -0.055,-0.572 -0.052,-1.117 0.016,-1.623 z m -3.452,1.469 c -0.138,1.841 -0.619,3.459 -0.454,5.561 0.136,-1.887 0.624,-3.499 0.454,-5.561 z m 26.052,1.807 c -0.042,0.955 0.016,2.191 0.041,3.486 0.031,-1.182 -0.016,-2.399 -0.041,-3.486 z m -34.128,0.845 c -0.478,-11.393 8.195,-21.182 19.646,-22.012 11.67,-0.846 21.821,7.939 22.667,19.609 0.06,0.824 0.071,1.64 0.037,2.447 -0.009,-0.217 -0.021,-0.436 -0.037,-0.655 -0.846,-11.67 -10.997,-20.455 -22.667,-19.609 -10.846,0.786 -19.2,9.61 -19.646,20.22 z" />
            </g><g
     id="g107"
     transform="matrix(0.95477318,0,0,0.95477318,-586.20815,0.92290163)">
                <path
   inkscape:connector-curvature="0"
   id="path105"
   style="fill:#ffe656"
   d="m 657.89,52.049 c 1.06,11.747 10.947,20.966 22.969,20.966 12.023,0 21.909,-9.219 22.969,-20.966 0.062,0.691 0.094,1.391 0.094,2.097 0,12.729 -10.334,21.964 -23.063,21.964 -12.729,0 -23.063,-9.235 -23.063,-21.964 0,-0.706 0.032,-1.406 0.094,-2.097 z" />
            </g><g
     id="g111"
     transform="matrix(0.18705504,0,0,0.18705504,-54.268368,44.940209)">
                <path
   inkscape:connector-curvature="0"
   id="path109"
   style="fill:url(#_Linear15)"
   d="m 657.89,52.049 c 1.06,11.747 10.947,20.966 22.969,20.966 12.023,0 21.909,-9.219 22.969,-20.966 0.062,0.691 0.094,1.391 0.094,2.097 0,12.729 -4.691,28.471 -23.063,28.471 -18.372,0 -23.063,-15.742 -23.063,-28.471 0,-0.706 0.032,-1.406 0.094,-2.097 z" />
            </g><g
     id="g115"
     transform="matrix(-0.17354031,0.0086125,0.0086125,0.17354031,171.63413,38.005568)">
                <path
   inkscape:connector-curvature="0"
   id="path113"
   style="fill:url(#_Linear16)"
   d="m 657.89,52.049 c 1.06,11.747 10.947,20.966 22.969,20.966 12.023,0 21.909,-9.219 22.969,-20.966 0.062,0.691 0.094,1.391 0.094,2.097 0,12.729 -4.691,28.471 -23.063,28.471 -18.372,0 -23.063,-15.742 -23.063,-28.471 0,-0.706 0.032,-1.406 0.094,-2.097 z" />
            </g><g
     id="g119"
     transform="matrix(1.0000012,0,0,1.0000012,-618.00023,0)">
                <path
   inkscape:connector-curvature="0"
   id="path117"
   style="fill:#fee750"
   d="m 676.641,41.231 c -1.908,-0.569 -3.387,1.026 -3.69,2.377 -0.302,1.351 -0.531,3.274 1.876,5.731 1.375,1.403 1.814,3.365 1.814,3.365 0,0 0.799,-1.632 2.034,-1.632 3.38,0 3.392,2.09 5.056,2.907 2.307,1.132 2.307,0.697 2.307,0.697 0,0 0,-1.972 2.148,-4.741 2.603,-3.355 3.285,-5.696 2.241,-7.73 -1.045,-2.034 -3.376,-2.135 -4.389,-1.22 -1.157,1.044 -1.136,4.393 -4.46,4.177 -3.325,-0.217 -2.353,-3.161 -4.937,-3.931 z" />
            </g><g
     id="g123"
     transform="matrix(1.0000012,0,0,1.0000012,-627.36371,1.3743874)">
                <path
   inkscape:connector-curvature="0"
   id="path121"
   style="fill:#fee750"
   d="m 677.651,44.132 c 0,-1.115 -0.515,-2.537 -1.581,-2.537 -1.065,0 -1.556,0.722 -1.88,1.37 -0.494,0.985 -0.865,7.456 0.52,9.817 0.79,1.347 2.355,1.821 2.355,1.821 0,0 -0.954,-3.921 0,-3.683 -0.421,-3.625 0.586,-4.023 0.586,-6.788 z" />
            </g><g
     id="g127"
     transform="matrix(-0.99795174,-0.06394735,-0.06394735,0.99795174,756.84025,46.441072)">
                <path
   inkscape:connector-curvature="0"
   id="path125"
   style="fill:#fee750"
   d="m 677.651,44.132 c 0,-1.115 -0.515,-2.537 -1.581,-2.537 -1.065,0 -1.556,0.722 -1.88,1.37 -0.494,0.985 -0.865,7.456 0.52,9.817 0.79,1.347 2.355,1.821 2.355,1.821 0,0 -0.954,-3.921 0,-3.683 -0.421,-3.625 0.586,-4.023 0.586,-6.788 z" />
            </g><g
     id="g131"
     transform="matrix(0.11427122,-0.04489274,-0.04489274,-0.11427122,-17.258472,81.430693)">
                <path
   inkscape:connector-curvature="0"
   id="path129"
   style="fill:#ffffff"
   d="m 661.513,71.543 c -2.756,-5.257 -0.377,-8.42 3.703,-4.65 4.112,3.799 9.608,6.122 15.643,6.122 5.495,0 10.543,-1.926 14.507,-5.138 4.709,-3.817 7.123,1.261 2.738,6.971 -3.548,4.62 -9.028,7.769 -17.245,7.769 -10.056,0 -16.013,-4.716 -19.346,-11.074 z" />
            </g><g
     id="g135"
     transform="matrix(0.12265876,0.00530624,0.00530624,-0.12265876,-13.998819,47.086519)">
                <path
   inkscape:connector-curvature="0"
   id="path133"
   style="fill:#ffffff"
   d="m 661.513,71.543 c -2.756,-5.257 -0.377,-8.42 3.703,-4.65 4.112,3.799 9.608,6.122 15.643,6.122 5.495,0 10.543,-1.926 14.507,-5.138 4.709,-3.817 7.123,1.261 2.738,6.971 -3.548,4.62 -9.028,7.769 -17.245,7.769 -10.056,0 -16.013,-4.716 -19.346,-11.074 z" />
            </g><g
     id="g139"
     transform="matrix(0.09169902,0.00396691,0.00530624,-0.12265876,16.944887,52.094089)">
                <path
   inkscape:connector-curvature="0"
   id="path137"
   style="fill:#ffffff"
   d="m 661.513,71.543 c -2.756,-5.257 -0.377,-8.42 3.703,-4.65 4.112,3.799 9.608,6.122 15.643,6.122 5.495,0 10.543,-1.926 14.507,-5.138 4.709,-3.817 7.123,1.261 2.738,6.971 -3.548,4.62 -9.028,7.769 -17.245,7.769 -10.056,0 -16.013,-4.716 -19.346,-11.074 z" />
            </g><g
     id="g143"
     transform="matrix(0.09169902,0.00396691,0.00530624,-0.12265876,-14.115932,50.279878)">
                <path
   inkscape:connector-curvature="0"
   id="path141"
   style="fill:#ffffff"
   d="m 661.513,71.543 c -2.756,-5.257 -0.377,-8.42 3.703,-4.65 4.112,3.799 9.608,6.122 15.643,6.122 5.495,0 10.543,-1.926 14.507,-5.138 4.709,-3.817 7.123,1.261 2.738,6.971 -3.548,4.62 -9.028,7.769 -17.245,7.769 -10.056,0 -16.013,-4.716 -19.346,-11.074 z" />
            </g><g
     id="g147"
     transform="matrix(-0.12198675,0.01387702,0.01387702,0.12198675,146.18639,27.109569)">
                <path
   inkscape:connector-curvature="0"
   id="path145"
   style="fill:#ffffff"
   d="m 661.513,71.543 c -2.756,-5.257 -0.377,-8.42 3.703,-4.65 4.112,3.799 9.608,6.122 15.643,6.122 5.495,0 10.543,-1.926 14.507,-5.138 4.709,-3.817 7.123,1.261 2.738,6.971 -3.548,4.62 -9.028,7.769 -17.245,7.769 -10.056,0 -16.013,-4.716 -19.346,-11.074 z" />
            </g><g
     id="g151"
     transform="matrix(0.6976328,0,0,0.6976328,-412.76955,21.5195)">
                <path
   inkscape:connector-curvature="0"
   id="path149"
   style="fill:#ffffff"
   d="m 688.621,72.451 c 0,-1.209 -0.981,-2.19 -2.19,-2.19 h -6.445 c -1.209,0 -2.19,0.981 -2.19,2.19 0,1.208 0.981,2.189 2.19,2.189 h 6.445 c 1.209,0 2.19,-0.981 2.19,-2.189 z" />
            </g></g>
    <defs
   id="defs245">
        <linearGradient
   id="_Linear1"
   x1="0"
   y1="0"
   x2="1"
   y2="0"
   gradientUnits="userSpaceOnUse"
   gradientTransform="matrix(47.7625,102.532,-102.532,47.7625,658.931,15.0783)"><stop
     offset="0"
     style="stop-color:rgb(201,125,14);stop-opacity:1"
     id="stop156" /><stop
     offset="0.44"
     style="stop-color:rgb(142,98,11);stop-opacity:1"
     id="stop158" /><stop
     offset="1"
     style="stop-color:rgb(115,79,8);stop-opacity:1"
     id="stop160" /></linearGradient>
        <linearGradient
   id="_Linear3"
   x1="0"
   y1="0"
   x2="1"
   y2="0"
   gradientUnits="userSpaceOnUse"
   gradientTransform="matrix(0,6.73711,-6.73711,0,682.25,90.7908)"><stop
     offset="0"
     style="stop-color:rgb(163,123,39);stop-opacity:1"
     id="stop163" /><stop
     offset="1"
     style="stop-color:rgb(226,190,76);stop-opacity:1"
     id="stop165" /></linearGradient>
        <linearGradient
   id="_Linear4"
   x1="0"
   y1="0"
   x2="1"
   y2="0"
   gradientUnits="userSpaceOnUse"
   gradientTransform="matrix(0,-2.07007,2.82383,0,682.25,92.8609)"><stop
     offset="0"
     style="stop-color:rgb(163,123,39);stop-opacity:1"
     id="stop168" /><stop
     offset="1"
     style="stop-color:rgb(226,190,76);stop-opacity:1"
     id="stop170" /></linearGradient>
        <linearGradient
   id="_Linear5"
   x1="0"
   y1="0"
   x2="1"
   y2="0"
   gradientUnits="userSpaceOnUse"
   gradientTransform="matrix(0,12.279,-4.7588,0,682.111,77.9117)"><stop
     offset="0"
     style="stop-color:rgb(226,190,76);stop-opacity:1"
     id="stop173" /><stop
     offset="1"
     style="stop-color:rgb(210,144,15);stop-opacity:1"
     id="stop175" /></linearGradient>
        <linearGradient
   id="_Linear6"
   x1="0"
   y1="0"
   x2="1"
   y2="0"
   gradientUnits="userSpaceOnUse"
   gradientTransform="matrix(14.9808,0,0,1.87171,712.966,45.7615)"><stop
     offset="0"
     style="stop-color:rgb(163,123,39);stop-opacity:1"
     id="stop178" /><stop
     offset="1"
     style="stop-color:rgb(226,190,76);stop-opacity:1"
     id="stop180" /></linearGradient>
        <linearGradient
   id="_Linear7"
   x1="0"
   y1="0"
   x2="1"
   y2="0"
   gradientUnits="userSpaceOnUse"
   gradientTransform="matrix(14.9808,0,0,1.87171,712.966,45.7615)"><stop
     offset="0"
     style="stop-color:rgb(163,123,39);stop-opacity:1"
     id="stop183" /><stop
     offset="1"
     style="stop-color:rgb(226,190,76);stop-opacity:1"
     id="stop185" /></linearGradient>
        <linearGradient
   id="_Linear8"
   x1="0"
   y1="0"
   x2="1"
   y2="0"
   gradientUnits="userSpaceOnUse"
   gradientTransform="matrix(-15.6175,0,0,-15.6175,710.612,52.4513)"><stop
     offset="0"
     style="stop-color:white;stop-opacity:1"
     id="stop188" /><stop
     offset="1"
     style="stop-color:rgb(245,226,109);stop-opacity:1"
     id="stop190" /></linearGradient>
        <linearGradient
   id="_Linear9"
   x1="0"
   y1="0"
   x2="1"
   y2="0"
   gradientUnits="userSpaceOnUse"
   gradientTransform="matrix(4.34191,0,0,4.34191,671.78,99.5078)"><stop
     offset="0"
     style="stop-color:white;stop-opacity:1"
     id="stop193" /><stop
     offset="1"
     style="stop-color:rgb(245,226,109);stop-opacity:1"
     id="stop195" /></linearGradient>
        <linearGradient
   id="_Linear10"
   x1="0"
   y1="0"
   x2="1"
   y2="0"
   gradientUnits="userSpaceOnUse"
   gradientTransform="matrix(4.34191,0,0,4.34191,671.78,99.5078)"><stop
     offset="0"
     style="stop-color:white;stop-opacity:1"
     id="stop198" /><stop
     offset="1"
     style="stop-color:rgb(245,226,109);stop-opacity:1"
     id="stop200" /></linearGradient>
        <linearGradient
   id="_Linear11"
   x1="0"
   y1="0"
   x2="1"
   y2="0"
   gradientUnits="userSpaceOnUse"
   gradientTransform="matrix(-15.6175,0,0,-15.6175,710.612,52.4513)"><stop
     offset="0"
     style="stop-color:white;stop-opacity:1"
     id="stop203" /><stop
     offset="1"
     style="stop-color:rgb(245,226,109);stop-opacity:1"
     id="stop205" /></linearGradient>
        <linearGradient
   id="_Linear12"
   x1="0"
   y1="0"
   x2="1"
   y2="0"
   gradientUnits="userSpaceOnUse"
   gradientTransform="matrix(0,12.279,-4.7588,0,682.111,77.9117)"><stop
     offset="0"
     style="stop-color:rgb(226,190,76);stop-opacity:1"
     id="stop208" /><stop
     offset="1"
     style="stop-color:rgb(210,144,15);stop-opacity:1"
     id="stop210" /></linearGradient>
        <linearGradient
   id="_Linear13"
   x1="0"
   y1="0"
   x2="1"
   y2="0"
   gradientUnits="userSpaceOnUse"
   gradientTransform="matrix(0,130.61,-130.61,0,219.287,146.678)"><stop
     offset="0"
     style="stop-color:rgb(128,88,9);stop-opacity:1"
     id="stop213" /><stop
     offset="1"
     style="stop-color:rgb(198,124,14);stop-opacity:1"
     id="stop215" /></linearGradient>
        <linearGradient
   id="_Linear14"
   x1="0"
   y1="0"
   x2="1"
   y2="0"
   gradientUnits="userSpaceOnUse"
   gradientTransform="matrix(0,42.3888,-42.3888,0,681.832,27.7598)"><stop
     offset="0"
     style="stop-color:rgb(200,124,14);stop-opacity:1"
     id="stop218" /><stop
     offset="1"
     style="stop-color:rgb(119,71,0);stop-opacity:1"
     id="stop220" /></linearGradient>
        <linearGradient
   id="_Linear15"
   x1="0"
   y1="0"
   x2="1"
   y2="0"
   gradientUnits="userSpaceOnUse"
   gradientTransform="matrix(-45.7453,0,0,-18.5867,703.922,54.146)"><stop
     offset="0"
     style="stop-color:white;stop-opacity:1"
     id="stop223" /><stop
     offset="0.23"
     style="stop-color:rgb(254,236,119);stop-opacity:1"
     id="stop225" /><stop
     offset="0.5"
     style="stop-color:rgb(254,231,80);stop-opacity:1"
     id="stop227" /><stop
     offset="0.77"
     style="stop-color:rgb(254,236,118);stop-opacity:1"
     id="stop229" /><stop
     offset="1"
     style="stop-color:white;stop-opacity:1"
     id="stop231" /></linearGradient>
        <linearGradient
   id="_Linear16"
   x1="0"
   y1="0"
   x2="1"
   y2="0"
   gradientUnits="userSpaceOnUse"
   gradientTransform="matrix(-45.7453,0,0,-18.5867,703.922,54.146)"><stop
     offset="0"
     style="stop-color:white;stop-opacity:1"
     id="stop234" /><stop
     offset="0.23"
     style="stop-color:rgb(254,236,119);stop-opacity:1"
     id="stop236" /><stop
     offset="0.5"
     style="stop-color:rgb(254,231,80);stop-opacity:1"
     id="stop238" /><stop
     offset="0.77"
     style="stop-color:rgb(254,236,118);stop-opacity:1"
     id="stop240" /><stop
     offset="1"
     style="stop-color:white;stop-opacity:1"
     id="stop242" /></linearGradient>
    
        
    
            
            
            
            
            
            
            
            
            
            
            
            
            
            
            
            
            
            
            
            
            
            
            
            
            
            
            
            
            
            
            
            
            
        </defs>
</svg>