<svg width="32" height="32" viewBox="0 0 24 24" fill="none" xmlns="http://www.w3.org/2000/svg"><path d="M11.1039 17.5794C7.90659 20.7768 2.9567 17.9482 2.9567 17.2411 2.9567 16.534 4.51534 16.3898 5.4317 15.4735 5.91401 14.9912 6.15869 14.0394 6.86129 13.3368 8.61368 11.5844 10.3815 11.9379 11.4421 12.9986 12.5028 14.0593 12.8563 15.827 11.1039 17.5794Z" fill="#fff"/><path fill-rule="evenodd" clip-rule="evenodd" d="M18.8235 4.82388C18.4501 4.45048 17.8526 4.43018 17.457 4.77996 15.8498 6.20105 11.9989 9.61275 11.4417 10.17 11.1686 10.4431 10.8745 10.9059 10.6162 11.3713 11.2248 11.5615 11.7676 11.9101 12.2134 12.3559 12.6174 12.7599 12.9416 13.2437 13.1404 13.7838 13.5812 13.5355 14.0111 13.2575 14.2701 12.9984 14.8274 12.4412 18.2391 8.59033 19.6602 6.9831 20.0099 6.5875 19.9896 5.99001 19.6162 5.61661L18.8235 4.82388Z" fill="#fff"/></svg>