<svg width="32" height="32" viewBox="0 0 24 24" fill="none" xmlns="http://www.w3.org/2000/svg"><path fill-rule="evenodd" clip-rule="evenodd" d="M6.00193 13.1255C6.00065 13.0838 6 13.042 6 13 6 10.7909 7.79086 9 10 9 11.8307 9 13.3742 10.2299 13.8493 11.9085 14.3943 11.3481 15.1565 11 16 11 17.6569 11 19 12.3431 19 14 19 14.3902 18.9255 14.7631 18.7899 15.1051 20.0635 15.4518 21 16.6165 21 18 21 19.6569 19.6569 21 18 21H11C10.8423 21 10.6874 20.9878 10.5362 20.9644 10.3608 20.9879 10.1818 21 10 21H7C4.79086 21 3 19.2091 3 17 3 15.1355 4.27572 13.5689 6.00193 13.1255Z" fill="#fff"/><circle cx="17" cy="6" r="3" fill="#fff"/></svg>