<svg width="32" height="32" viewBox="0 0 24 24" fill="none" xmlns="http://www.w3.org/2000/svg"><path fill-rule="evenodd" clip-rule="evenodd" d="M20 12C20 16.4183 16.4183 20 12 20 7.58172 20 4 16.4183 4 12 4 7.58172 7.58172 4 12 4 16.4183 4 20 7.58172 20 12ZM11 9C11 10.1046 10.1046 11 9 11 7.89543 11 7 10.1046 7 9 7 7.89543 7.89543 7 9 7 10.1046 7 11 7.89543 11 9ZM17.9997 10C17.9997 14.4183 14.4179 18 9.99966 18 9.31141 18 8.64346 17.9131 8.00619 17.7497 9.13884 18.5379 10.5154 19 11.9999 19 15.8659 19 18.9999 15.866 18.9999 12 18.9999 10.5151 18.5376 9.1382 17.749 8.00538 17.9126 8.64301 17.9997 9.31136 17.9997 10Z" fill="#fff"/></svg>