<svg width="960" height="960" viewBox="0 0 960 960" version="1.1" xmlns="http://www.w3.org/2000/svg" xmlns:xlink="http://www.w3.org/1999/xlink"><title>mm</title><defs><linearGradient x1="13.233134%" y1="85.529143%" x2="98.284486%" y2="3.944886%" id="linearGradient-1"><stop stop-color="#f942ee" offset="0%"/><stop stop-color="#769bf6" offset="60%"/><stop stop-color="#06e5ff" offset="100%"/></linearGradient></defs><g id="mm" stroke="none" stroke-width="1" fill="none" fill-rule="evenodd"><path d="M878.946763 451.107959C894.830373 671.21042 729.187017 863.052303 508.87929 878.935985 288.777844 895.02595 96.936846 729.175548 81.053237 508.866805 65.169627 288.764344 230.812983 96.922462 451.12071 81.038779 671.222156 65.155096 863.063154 230.799216 878.946763 451.107959ZM661.526966 376.640303C659.051598 342.60384 629.759747 297.22189 586.440812 300.316114 541.471632 303.616619 526.619425 343.222685 520.018445 361.169184 513.417464 379.528246 496.708732 400.77525 477.318352 400.77525 457.721691 400.77525 444.72601 385.922975 427.192155 356.218426 409.039459 325.482468 367.989611 313.311854 335.809831 328.782974 304.248892 344.254093 293.72858 376.846585 297.441631 415.627525 304.248892 488.857491 346.948985 497.727599 353.549966 546.203774 357.056737 571.782692 334.159586 612.007602 297.02907 614.689263 253.916415 617.783487 227.512493 589.316627 224.212003 553.011066 222.049924 528.230201 224.715102 507.103317 227.734468 486.373574L229.02102 477.614159C233.080173 449.909215 236.642474 422.09239 228.956458 386.335538 224.212003 364.882253 210.3912 350.855104 191.000819 350.855104 171.81672 350.855104 156.551952 365.294816 149.125849 386.335538 141.906026 407.582543 133.44852 452.758212 137.161572 504.947455 150.776094 692.663706 304.455173 837.473385 504.753677 822.827392 687.724607 809.62537 837.071793 649.757134 822.838428 455.233591L822.406726 447.966928C821.897618 440.076823 821.028205 431.203865 817.887693 417.071496 812.111835 391.905141 791.896332 380.765935 772.712232 382.209907 753.528132 383.653878 733.312629 393.967957 726.299088 429.035828 719.491826 463.897418 731.868665 544.34724 719.698107 598.599299 709.590355 643.98125 667.509104 657.595835 641.724024 655.120456 615.938944 652.645076 572.620009 627.066159 578.395867 574.670634 586.02825 505.978863 669.984472 494.014531 661.526966 376.640303Z" id="Shape" fill="url(#linearGradient-1)"/></g></svg>