<?xml version="1.0" encoding="UTF-8" standalone="no"?>
<!-- Created with Inkscape (http://www.inkscape.org/) -->

<svg
   width="512"
   height="512"
   viewBox="0 0 135.46666 135.46667"
   version="1.1"
   id="svg8"
   inkscape:version="1.1 (c68e22c387, 2021-05-23)"
   sodipodi:docname="icons.svg"
   xmlns:inkscape="http://www.inkscape.org/namespaces/inkscape"
   xmlns:sodipodi="http://sodipodi.sourceforge.net/DTD/sodipodi-0.dtd"
   xmlns="http://www.w3.org/2000/svg"
   xmlns:svg="http://www.w3.org/2000/svg"
   xmlns:rdf="http://www.w3.org/1999/02/22-rdf-syntax-ns#"
   xmlns:cc="http://creativecommons.org/ns#"
   xmlns:dc="http://purl.org/dc/elements/1.1/">
  <defs
     id="defs2" />
  <sodipodi:namedview
     id="base"
     pagecolor="#ffffff"
     bordercolor="#666666"
     borderopacity="1.0"
     inkscape:pageopacity="0.0"
     inkscape:pageshadow="2"
     inkscape:zoom="32"
     inkscape:cx="128.98438"
     inkscape:cy="6.390625"
     inkscape:document-units="mm"
     inkscape:current-layer="layer1"
     showgrid="true"
     units="px"
     inkscape:snap-global="false"
     inkscape:window-width="1920"
     inkscape:window-height="1009"
     inkscape:window-x="-8"
     inkscape:window-y="-8"
     inkscape:window-maximized="1"
     inkscape:pagecheckerboard="0">
    <inkscape:grid
       type="xygrid"
       id="grid815"
       spacingx="4.2333333"
       spacingy="4.2333333"
       empspacing="4" />
  </sodipodi:namedview>
  <metadata
     id="metadata5">
    <rdf:RDF>
      <cc:Work
         rdf:about="">
        <dc:format>image/svg+xml</dc:format>
        <dc:type
           rdf:resource="http://purl.org/dc/dcmitype/StillImage" />
        <dc:title />
      </cc:Work>
    </rdf:RDF>
  </metadata>
  <g
     inkscape:label="Calque 1"
     inkscape:groupmode="layer"
     id="layer1"
     transform="translate(0,-161.53332)">
    <path
       style="opacity:1;fill:#acc7e1;fill-opacity:1;stroke:#989898;stroke-width:0.99999994;stroke-linecap:round;stroke-linejoin:round;stroke-miterlimit:4;stroke-dasharray:none;stroke-opacity:1;paint-order:normal"
       d="M 56.251953,1.3671875 52.337891,8.375 l 4.103515,6.630859 3.220703,-6.9453121 z"
       transform="matrix(0.26458333,0,0,0.26458333,0,161.53332)"
       id="rect4526"
       inkscape:connector-curvature="0"
       sodipodi:nodetypes="ccccc" />
    <circle
       style="opacity:1;fill:#acc7e1;fill-opacity:1;stroke:#989898;stroke-width:0.26458332;stroke-linecap:round;stroke-linejoin:round;stroke-miterlimit:4;stroke-dasharray:none;stroke-opacity:1;paint-order:normal"
       id="path4528"
       cx="2.0800271"
       cy="163.60776"
       r="1.8458302" />
    <path
       id="path830"
       transform="matrix(0.26458333,0,0,0.26458333,0,161.53332)"
       d="M 39.900391,1.4941406 33.398438,14.5625 H 46.59375 Z"
       style="opacity:1;fill:#acc7e1;fill-opacity:1;stroke:#989898;stroke-width:0.99999994;stroke-linecap:round;stroke-linejoin:round;stroke-miterlimit:4;stroke-dasharray:none;stroke-opacity:1;paint-order:normal"
       inkscape:connector-curvature="0"
       sodipodi:nodetypes="cccc" />
    <path
       style="opacity:1;fill:#acc7e1;fill-opacity:1;stroke:#989898;stroke-width:0.99999994;stroke-linecap:round;stroke-linejoin:round;stroke-miterlimit:4;stroke-dasharray:none;stroke-opacity:1;paint-order:normal"
       d="M 17.5625,1.6054688 V 14.552734 H 30.419922 V 1.6054688 Z"
       transform="matrix(0.26458333,0,0,0.26458333,0,161.53332)"
       id="path832"
       inkscape:connector-curvature="0"
       sodipodi:nodetypes="ccccc" />
    <path
       style="opacity:1;fill:#acc7e1;fill-opacity:1;stroke:#989898;stroke-width:0.26458332;stroke-linecap:round;stroke-linejoin:round;stroke-miterlimit:4;stroke-dasharray:none;stroke-opacity:1;paint-order:normal"
       d="m 20.268973,162.93943 0.0043,2.53464 -2.276134,-0.005 0.004,-2.52925 c -10e-7,-0.62625 0.507676,-1.13393 1.133928,-1.13393 0.626252,0 1.13393,0.50768 1.133929,1.13393 z"
       id="path834"
       inkscape:connector-curvature="0"
       sodipodi:nodetypes="ccccscc" />
    <path
       style="opacity:1;fill:#acc7e1;fill-opacity:1;stroke:#989898;stroke-width:0.99999994;stroke-linecap:round;stroke-linejoin:round;stroke-miterlimit:4;stroke-dasharray:none;stroke-opacity:1;paint-order:normal"
       d="M 83.572266 1.8222656 A 1.6071428 1.6517857 0 0 0 81.964844 3.4726562 A 1.6071428 1.6517857 0 0 0 82.576172 4.7675781 L 90.712891 13.701172 A 1.6071428 1.6517857 0 0 0 92.03125 14.410156 A 1.6071428 1.6517857 0 0 0 93.638672 12.759766 A 1.6071428 1.6517857 0 0 0 93.410156 11.914062 C 93.403803 11.888859 93.401608 11.862428 93.382812 11.841797 L 93.314453 11.765625 A 1.6071428 1.6517857 0 0 0 93.066406 11.496094 L 84.845703 2.4707031 A 1.6071428 1.6517857 0 0 0 83.572266 1.8222656 z "
       transform="matrix(0.26458333,0,0,0.26458333,0,161.53332)"
       id="path839" />
    <path
       style="opacity:1;fill:#acc7e1;fill-opacity:1;stroke:#989898;stroke-width:0.99999994;stroke-linecap:round;stroke-linejoin:round;stroke-miterlimit:4;stroke-dasharray:none;stroke-opacity:1;paint-order:normal"
       d="M 4.75 17 L 4.75 20.394531 A 5.5624999 5.5624999 0 0 0 0.875 25.6875 A 5.5624999 5.5624999 0 0 0 6.4375 31.25 A 5.5624999 5.5624999 0 0 0 12 25.6875 A 5.5624999 5.5624999 0 0 0 11.994141 25.5 L 15 25.5 L 15 17 L 4.75 17 z "
       transform="matrix(0.26458333,0,0,0.26458333,0,161.53332)"
       id="rect862" />
    <rect
       style="opacity:1;fill:none;fill-opacity:1;stroke:#989898;stroke-width:0.26458332;stroke-linecap:round;stroke-linejoin:round;stroke-miterlimit:4;stroke-dasharray:none;stroke-opacity:0.529661;paint-order:normal"
       id="rect848"
       width="2.7119792"
       height="2.2489583"
       x="1.2567708"
       y="166.03123" />
    <circle
       style="opacity:1;fill:none;fill-opacity:1;stroke:#989898;stroke-width:0.26458332;stroke-linecap:round;stroke-linejoin:round;stroke-miterlimit:4;stroke-dasharray:none;stroke-opacity:0.529661;paint-order:normal"
       id="path852"
       cx="1.7032552"
       cy="168.3298"
       r="1.4717448" />
    <rect
       y="165.99817"
       x="5.4901042"
       height="2.2489583"
       width="2.7119792"
       id="rect854"
       style="opacity:1;fill:none;fill-opacity:1;stroke:#989898;stroke-width:0.26458332;stroke-linecap:round;stroke-linejoin:round;stroke-miterlimit:4;stroke-dasharray:none;stroke-opacity:0.52542371;paint-order:normal" />
    <circle
       r="1.4717448"
       cy="168.29674"
       cx="5.9365883"
       id="circle856"
       style="opacity:1;fill:none;fill-opacity:1;stroke:#989898;stroke-width:0.26458332;stroke-linecap:round;stroke-linejoin:round;stroke-miterlimit:4;stroke-dasharray:none;stroke-opacity:0.52542371;paint-order:normal" />
    <path
       style="opacity:1;fill:#acc7e1;fill-opacity:1;stroke:#989898;stroke-width:0.99999994;stroke-linecap:round;stroke-linejoin:round;stroke-miterlimit:4;stroke-dasharray:none;stroke-opacity:1;paint-order:normal"
       d="M 36.875 16.875 L 36.875 20.269531 A 5.5624999 5.5624999 0 0 1 38.5625 20 A 5.5624999 5.5624999 0 0 1 44.119141 25.375 L 47.125 25.375 L 47.125 16.875 L 36.875 16.875 z "
       transform="matrix(0.26458333,0,0,0.26458333,0,161.53332)"
       id="rect872" />
    <rect
       style="opacity:1;fill:none;fill-opacity:1;stroke:#989898;stroke-width:0.26458332;stroke-linecap:round;stroke-linejoin:round;stroke-miterlimit:4;stroke-dasharray:none;stroke-opacity:0.64830506;paint-order:normal"
       id="rect858"
       width="2.7119792"
       height="2.2489583"
       x="9.7565107"
       y="165.99817" />
    <circle
       style="opacity:1;fill:none;fill-opacity:1;stroke:#989898;stroke-width:0.26458332;stroke-linecap:round;stroke-linejoin:round;stroke-miterlimit:4;stroke-dasharray:none;stroke-opacity:0.64830506;paint-order:normal"
       id="circle860"
       cx="10.202994"
       cy="168.29674"
       r="1.4717448" />
    <path
       style="opacity:1;fill:#acc7e1;fill-opacity:1;stroke:#989898;stroke-width:0.99999994;stroke-linecap:round;stroke-linejoin:round;stroke-miterlimit:4;stroke-dasharray:none;stroke-opacity:1;paint-order:normal"
       d="M 22.4375 20 A 5.5624999 5.5624999 0 0 0 20.75 20.269531 L 20.75 25.375 L 27.994141 25.375 A 5.5624999 5.5624999 0 0 0 22.4375 20 z "
       transform="matrix(0.26458333,0,0,0.26458333,0,161.53332)"
       id="rect867" />
    <path
       sodipodi:type="star"
       style="font-variation-settings:normal;opacity:1;vector-effect:none;fill:#acc7e1;fill-opacity:1;stroke:#989898;stroke-width:1;stroke-linecap:round;stroke-linejoin:round;stroke-miterlimit:4;stroke-dasharray:none;stroke-dashoffset:0;stroke-opacity:1;-inkscape-stroke:none;paint-order:normal;stop-color:#000000;stop-opacity:1"
       id="path860"
       inkscape:flatsided="true"
       sodipodi:sides="5"
       sodipodi:cx="100.75"
       sodipodi:cy="6.125"
       sodipodi:r1="7.2190204"
       sodipodi:r2="3.5474672"
       sodipodi:arg1="0.93595301"
       sodipodi:arg2="1.5642716"
       inkscape:rounded="0"
       inkscape:randomized="0"
       d="m 105.03125,11.9375 -8.486287,0.05537 -2.675069,-8.0538276 6.833006,-5.0329111 6.89809,4.9433173 z"
       transform="matrix(0.26458333,0,0,0.26458333,0.90123698,162.15344)"
       inkscape:transform-center-x="0.020615066"
       inkscape:transform-center-y="-0.19192014" />
    <path
       sodipodi:type="star"
       style="font-variation-settings:normal;opacity:1;vector-effect:none;fill:#acc7e1;fill-opacity:1;stroke:#989898;stroke-width:1;stroke-linecap:round;stroke-linejoin:round;stroke-miterlimit:4;stroke-dasharray:none;stroke-dashoffset:0;stroke-opacity:1;-inkscape-stroke:none;paint-order:normal;stop-color:#000000;stop-opacity:1"
       id="path1280"
       inkscape:flatsided="false"
       sodipodi:sides="5"
       sodipodi:cx="116.125"
       sodipodi:cy="5.53125"
       sodipodi:r1="7.3890228"
       sodipodi:r2="3.4233518"
       sodipodi:arg1="0.94759699"
       sodipodi:arg2="1.5759155"
       inkscape:rounded="0"
       inkscape:randomized="0"
       d="m 120.4375,11.53125 -4.33002,-2.5766931 -4.35618,2.5322261 1.11253,-4.9143399 -3.75443,-3.3604712 5.01761,-0.4605361 2.03582,-4.6091118 1.98852,4.6297133 5.01263,0.5118833 -3.78864,3.3218563 z"
       transform="matrix(0.26458333,0,0,0.26458333,1.0335287,162.35187)"
       inkscape:transform-center-x="-0.0032530183"
       inkscape:transform-center-y="-0.20112115" />
    <ellipse
       style="font-variation-settings:normal;opacity:1;vector-effect:none;fill:#acc7e1;fill-opacity:1;stroke:#989898;stroke-width:0.264583;stroke-linecap:round;stroke-linejoin:round;stroke-miterlimit:4;stroke-dasharray:none;stroke-dashoffset:0;stroke-opacity:1;-inkscape-stroke:none;paint-order:normal;stop-color:#000000;stop-opacity:1"
       id="path1506"
       ry="1.1410156"
       rx="1.8686198"
       cy="163.61691"
       cx="35.941994" />
  </g>
</svg>
