<?xml version="1.0" encoding="UTF-8" standalone="no"?><!DOCTYPE svg PUBLIC "-//W3C//DTD SVG 1.1//EN" "http://www.w3.org/Graphics/SVG/1.1/DTD/svg11.dtd"><svg width="100%" height="100%" viewBox="0 0 256 256" version="1.1" xmlns="http://www.w3.org/2000/svg" xmlns:xlink="http://www.w3.org/1999/xlink" xml:space="preserve" xmlns:serif="http://www.serif.com/" style="fill-rule:evenodd;clip-rule:evenodd;stroke-linejoin:round;stroke-miterlimit:2;"><rect id="Page-1" serif:id="Page 1" x="0" y="0" width="256" height="256" style="fill:none;"/><clipPath id="_clip1"><rect x="0" y="0" width="256" height="256"/></clipPath><g clip-path="url(#_clip1)"><g id="Logo"><path d="M256,128c0,-70.692 -57.308,-128 -128,-128c-70.692,0 -128,57.308 -128,128c0,60.029 41.326,110.398 97.078,124.231l0,-85.116l-26.395,0l0,-39.115l26.395,0l0,-16.855c0,-43.567 19.716,-63.76 62.489,-63.76c8.109,0 22.102,1.59 27.826,3.18l0,35.458c-3.021,-0.318 -8.268,-0.477 -14.788,-0.477c-20.988,0 -29.098,7.95 -29.098,28.621l0,13.833l41.809,0l-7.182,39.115l-34.627,0l0,87.948c63.378,-7.655 112.493,-61.62 112.493,-127.062" style="fill:#0866ff;fill-rule:nonzero;"/><path d="M178.134,167.115l7.183,-39.115l-41.809,0l0,-13.834c0,-20.67 8.109,-28.62 29.097,-28.62c6.519,0 11.766,0.159 14.788,0.477l0,-35.458c-5.724,-1.59 -19.717,-3.181 -27.826,-3.181c-42.772,0 -62.489,20.194 -62.489,63.761l0,16.855l-26.395,0l0,39.115l26.395,0l0,85.116c9.904,2.457 20.259,3.769 30.922,3.769c5.25,0 10.423,-0.324 15.507,-0.937l0,-87.948l34.627,0Z" style="fill:#fff;fill-rule:nonzero;"/></g></g></svg>