<?xml version="1.0" encoding="UTF-8"?>
<svg width="263px" height="237px" viewBox="0 0 263 237" version="1.1" xmlns="http://www.w3.org/2000/svg" xmlns:xlink="http://www.w3.org/1999/xlink">
    <title>itchio-logo-textless-black</title>
    <g id="Page-1" stroke="none" stroke-width="1" fill="none" fill-rule="evenodd">
        <g id="Artboard" transform="translate(-5, -18)" fill="#FA5C5C" fill-rule="nonzero">
            <g id="itchio-logo-textless-black" transform="translate(5.6355, 18.7756)">
                <path d="M34.1225276,1.45618123 C22.7060408,8.23482027 0.213332464,34.074715 0,40.8512207 L0,52.0682416 C0,66.2868503 13.2906125,78.7838661 25.3577633,78.7838661 C39.8473043,78.7838661 51.9197884,66.7753817 51.9208551,52.5226398 C51.9208551,66.7753817 63.5794742,78.7838661 78.0700818,78.7838661 C92.5617561,78.7838661 103.845977,66.7753817 103.845977,52.5226398 C103.845977,66.7753817 116.242726,78.7838661 130.733334,78.7838661 L130.995733,78.7838661 C145.487407,78.7838661 157.884157,66.7753817 157.884157,52.5226398 C157.884157,66.7753817 169.169444,78.7838661 183.658985,78.7838661 C198.149592,78.7838661 209.808212,66.7753817 209.808212,52.5226398 C209.808212,66.7753817 221.882829,78.7838661 236.371303,78.7838661 C248.438454,78.7838661 261.729067,66.2889837 261.729067,52.0682416 L261.729067,40.8512207 C261.515734,34.0736483 239.023026,8.23268695 227.608672,1.45618123 C192.125084,0.210319642 167.525717,-0.00514614679 130.863467,9.19276627e-05 C94.2022827,0.00338715177 44.2206198,0.576184817 34.1203943,1.45618123 L34.1225276,1.45618123 Z M103.662511,72.08736 C102.277018,74.5025712 100.560881,76.7123668 98.563865,78.6526666 C93.0940206,84.0009115 85.5964512,87.316098 77.3308848,87.316098 C69.3771254,87.3235548 61.7376319,84.2115374 56.0531049,78.6484 C54.0712463,76.7070745 52.5651191,74.6313497 51.1859247,72.2142929 L51.1795248,72.2185595 C49.801397,74.639883 47.8814049,76.7145412 45.8952796,78.6579999 C40.2085779,84.2170474 32.5699543,87.3264129 24.6174997,87.319298 C23.6212371,87.319298 22.5844413,87.0440991 21.7460447,86.7561003 C20.5812495,98.8861842 20.0895181,110.47867 19.9156522,118.930902 L19.9135188,118.978902 C19.8921856,123.271151 19.8708524,126.800737 19.8495191,131.704184 C20.0735182,157.154747 17.328996,214.193448 31.0708067,228.208324 C52.3656533,233.173637 91.5505602,235.434961 130.8624,235.448828 L130.8688,235.448828 C170.179573,235.434961 209.36448,233.173637 230.659327,228.208324 C244.401137,214.192381 241.656615,157.15368 241.880614,131.703117 C241.857148,126.800737 241.837948,123.271151 241.816614,118.977836 L241.813414,118.929836 C241.640615,110.47547 241.148884,98.8840508 239.984089,86.7539669 C239.145692,87.0419658 238.109963,87.3171646 237.112634,87.3171646 C229.160179,87.3242796 221.521555,84.2149141 215.834854,78.6558666 C213.848728,76.7124079 211.928736,74.6388163 210.549542,72.2164262 L210.543142,72.2121595 C209.162881,74.6292163 207.65782,76.7060079 205.675962,78.6462666 C199.991655,84.2089494 192.352533,87.3205886 184.399248,87.312898 C176.134749,87.312898 168.636113,83.9955782 163.166268,78.6484 C161.169252,76.7081001 159.453115,74.4983046 158.067622,72.0830934 C156.696979,74.4956421 154.996713,76.7053425 153.01591,78.6484 C147.330002,84.2104966 139.690015,87.3216375 131.735996,87.3139647 C131.447998,87.3139647 131.159999,87.3011647 130.872,87.2926314 L130.864533,87.2926314 C130.576535,87.3011647 130.288536,87.3139647 129.997337,87.3139647 C122.043469,87.3219225 114.403502,84.211173 108.717424,78.6494666 C106.736641,76.7063907 105.036377,74.4966933 103.665711,72.0830934 L103.662511,72.08736 Z M81.8108666,100.343245 L81.8087333,100.353912 L81.8247332,100.353912 C90.4785646,100.372045 98.1659999,100.353912 107.691294,110.749602 C115.187797,109.963472 123.021365,109.570941 130.861333,109.582674 L130.867733,109.582674 C138.707701,109.572007 146.541269,109.963472 154.038839,110.749602 C163.564133,100.352845 171.251569,100.370978 179.9054,100.353912 L179.920333,100.353912 L179.9182,100.343245 C184.006717,100.343245 200.36185,100.343245 211.75807,132.350581 L223.999087,176.259735 C233.069983,208.925202 221.094566,209.724132 206.157026,209.752932 C184.004583,208.928402 171.739033,192.841001 171.739033,176.755733 C159.476683,178.765325 145.171675,179.770121 130.866667,179.771188 L130.860267,179.771188 C116.554192,179.771188 102.249183,178.765325 89.9878999,176.755733 C89.9878999,192.841001 77.7212832,208.928402 55.5699069,209.752932 C40.6323677,209.724132 28.6580165,208.926269 37.7289129,176.259735 L49.9731297,132.351648 C61.3693499,100.343245 77.7244832,100.343245 81.8129999,100.343245 L81.8108666,100.343245 Z M130.861333,125.497276 L130.861333,125.503676 C130.84,125.525009 107.540895,146.922255 103.352112,154.532891 L118.60965,153.921693 L118.60965,167.227239 C118.60965,167.85017 124.732292,167.596304 130.861333,167.312572 L130.867733,167.312572 C136.994642,167.596304 143.11835,167.85017 143.11835,167.227239 L143.11835,153.921693 L158.375888,154.532891 C154.186038,146.922255 130.866667,125.503676 130.866667,125.503676 L130.866667,125.497276 L130.863467,125.499409 L130.861333,125.497276 Z" id="Shape"></path>
            </g>
        </g>
    </g>
</svg>