<?xml version="1.0" encoding="UTF-8"?>
<svg width="432px" height="432px" viewBox="0 0 432 432" version="1.1" xmlns="http://www.w3.org/2000/svg" xmlns:xlink="http://www.w3.org/1999/xlink">
    <title>Artboard</title>
    <g id="Artboard" stroke="none" stroke-width="1" fill="none" fill-rule="evenodd">
        <path d="M351.636995,206.177061 C357.037227,281.009192 300.720523,346.233074 225.818604,351.633331 C150.986818,357.103721 85.7632365,300.716623 80.3630047,225.814359 C74.9627725,150.982228 131.279477,85.7583462 206.181396,80.3580892 C281.013182,74.9578322 346.236763,131.274797 351.636995,206.177061 Z M277.716937,180.858974 C276.875342,169.286995 266.916473,153.857689 252.188568,154.909688 C236.899599,156.031819 231.850031,169.497394 229.605779,175.598983 C227.361527,181.840839 221.680763,189.064559 215.088273,189.064559 C208.425649,189.064559 204.007277,184.014968 198.045982,173.915786 C191.874288,163.465939 177.917845,159.328079 166.977115,164.58807 C156.246784,169.84806 152.670007,180.929107 153.932399,194.11415 C156.246784,219.011438 170.76429,222.027166 173.008543,238.508469 C174.200802,247.204987 166.416052,260.880962 153.792133,261.792694 C139.13436,262.844692 130.157351,253.166309 129.035225,240.822865 C128.300145,232.397676 129.206273,225.214795 130.23282,218.166937 L130.670232,215.188843 C132.050294,205.769503 133.261433,196.312124 130.648282,184.155234 C129.035225,176.861381 124.336322,172.092323 117.743831,172.092323 C111.221473,172.092323 106.03164,177.001648 103.506856,184.155234 C101.052205,191.378955 98.1767568,206.738127 99.4391489,224.481828 C104.067919,288.303046 156.316917,337.536557 224.415946,332.557099 C286.623813,328.068574 337.40002,273.715339 332.560851,207.579725 L332.414078,205.109149 C332.240987,202.426611 331.945398,199.409914 330.877662,194.605082 C328.913941,186.048831 322.040919,182.261638 315.518561,182.752571 C308.996202,183.243503 302.12318,186.750163 299.738662,198.672808 C297.424277,210.52532 301.63225,237.877271 297.49441,256.322304 C294.057898,271.751609 279.75079,276.380401 270.98418,275.538802 C262.21757,274.697204 247.489665,266.000686 249.453385,248.186852 C252.048302,224.832494 280.592385,220.764768 277.716937,180.858974 Z" id="Shape" fill="#FFFFFF" fill-rule="nonzero"></path>
    </g>
</svg>