<?xml version="1.0" encoding="UTF-8" standalone="no"?>
<!-- Created with Inkscape (http://www.inkscape.org/) -->

<svg
   xmlns:dc="http://purl.org/dc/elements/1.1/"
   xmlns:cc="http://creativecommons.org/ns#"
   xmlns:rdf="http://www.w3.org/1999/02/22-rdf-syntax-ns#"
   xmlns:svg="http://www.w3.org/2000/svg"
   xmlns="http://www.w3.org/2000/svg"
   xmlns:sodipodi="http://sodipodi.sourceforge.net/DTD/sodipodi-0.dtd"
   xmlns:inkscape="http://www.inkscape.org/namespaces/inkscape"
   width="210mm"
   height="297mm"
   viewBox="0 0 210 297"
   version="1.1"
   id="svg8"
   inkscape:version="0.92.3 (2405546, 2018-03-11)"
   sodipodi:docname="icons.svg">
  <defs
     id="defs2" />
  <sodipodi:namedview
     id="base"
     pagecolor="#ffffff"
     bordercolor="#666666"
     borderopacity="1.0"
     inkscape:pageopacity="0.0"
     inkscape:pageshadow="2"
     inkscape:zoom="2.8"
     inkscape:cx="127.97633"
     inkscape:cy="1033.5955"
     inkscape:document-units="mm"
     inkscape:current-layer="layer1"
     showgrid="true"
     inkscape:window-width="1920"
     inkscape:window-height="1017"
     inkscape:window-x="-8"
     inkscape:window-y="-8"
     inkscape:window-maximized="1">
    <inkscape:grid
       type="xygrid"
       id="grid815" />
  </sodipodi:namedview>
  <metadata
     id="metadata5">
    <rdf:RDF>
      <cc:Work
         rdf:about="">
        <dc:format>image/svg+xml</dc:format>
        <dc:type
           rdf:resource="http://purl.org/dc/dcmitype/StillImage" />
        <dc:title></dc:title>
      </cc:Work>
    </rdf:RDF>
  </metadata>
  <g
     inkscape:label="Calque 1"
     inkscape:groupmode="layer"
     id="layer1">
    <rect
       style="opacity:1;fill:#000000;fill-opacity:1;stroke:none;stroke-width:1;stroke-linecap:round;stroke-miterlimit:4;stroke-dasharray:none;stroke-opacity:1;paint-order:fill markers stroke"
       id="rect4533"
       width="238.125"
       height="174.625"
       x="-10.583333"
       y="-3.3020833"
       ry="0.82414269" />
    <g
       id="g4582"
       transform="matrix(1.2003144,0.26398218,-0.26389538,1.2007092,-4.1100858,-17.15364)"
       inkscape:export-filename="link.png"
       inkscape:export-xdpi="15.926786"
       inkscape:export-ydpi="15.926786">
      <path
         id="path4540"
         d="m 52.110175,11.249997 c -2.182497,-2.09336 -5.682294,-2.0795701 -7.847077,0.03092 l -5.999358,5.848887 c -1.693669,1.651191 -2.053303,4.081962 -1.084529,6.064327 l 2.668997,-2.602056 c 0.06832,-0.475315 0.288771,-0.934614 0.666689,-1.303055 l 5.999358,-5.848887 c 0.927764,-0.904495 2.427677,-0.910404 3.363033,-0.01325 0.935356,0.897155 0.941467,2.347581 0.0137,3.252076 l -5.999358,5.848886 c -0.305037,0.297386 -0.672368,0.495758 -1.060703,0.598709 l -2.79438,2.724294 c 2.027594,0.834538 4.455047,0.445994 6.106241,-1.163787 l 5.999357,-5.848886 C 54.306929,16.727686 54.292669,13.34336 52.110175,11.25 Z"
         style="opacity:1;fill:#ffffff;fill-opacity:1;stroke:none;stroke-width:0.5892244;stroke-linecap:round;stroke-miterlimit:4;stroke-dasharray:none;stroke-opacity:1;paint-order:fill markers stroke"
         inkscape:connector-curvature="0" />
      <path
         id="path4542"
         d="m 47.703334,18.314275 c -2.043073,-0.877257 -4.511855,-0.499459 -6.184325,1.131064 l -5.999358,5.848887 c -2.164785,2.11049 -2.150524,5.494815 0.03197,7.588174 2.182497,2.09336 5.682293,2.079573 7.847078,-0.03092 l 5.999358,-5.848887 c 1.67245,-1.630503 2.042985,-4.020862 1.11922,-5.989301 l -2.724165,2.655841 c -0.08761,0.429031 -0.302522,0.839174 -0.646213,1.174244 l -5.999357,5.848887 c -0.927764,0.904494 -2.427678,0.910405 -3.363034,0.01325 -0.935356,-0.897154 -0.941466,-2.34758 -0.0137,-3.252075 l 5.999358,-5.848887 c 0.343694,-0.335073 0.766059,-0.54623 1.209002,-0.634439 z"
         style="opacity:1;fill:#ffffff;fill-opacity:1;stroke:none;stroke-width:0.5892244;stroke-linecap:round;stroke-miterlimit:4;stroke-dasharray:none;stroke-opacity:1;paint-order:fill markers stroke"
         inkscape:connector-curvature="0" />
    </g>
    <g
       inkscape:export-ydpi="16.531826"
       inkscape:export-xdpi="16.531826"
       inkscape:export-filename="remove.png"
       id="g4564"
       transform="matrix(0.82426401,0.81188676,-0.82426401,0.81188676,84.358228,-6.2929802)"
       style="fill:#ff0909;fill-opacity:1">
      <rect
         style="opacity:1;fill:#ff0909;fill-opacity:1;stroke:none;stroke-width:1;stroke-linecap:round;stroke-miterlimit:4;stroke-dasharray:none;stroke-opacity:1;paint-order:fill markers stroke"
         id="rect4560"
         width="5.2916665"
         height="26.458334"
         x="10.583333"
         y="8.604167"
         ry="0" />
      <rect
         style="opacity:1;fill:#ff0909;fill-opacity:1;stroke:none;stroke-width:1;stroke-linecap:round;stroke-miterlimit:4;stroke-dasharray:none;stroke-opacity:1;paint-order:fill markers stroke"
         id="rect4562"
         width="26.458332"
         height="5.2916665"
         x="0"
         y="19.1875"
         ry="0" />
    </g>
    <g
       id="g4645"
       inkscape:export-filename="config.png"
       inkscape:export-xdpi="16.559999"
       inkscape:export-ydpi="16.559999"
       transform="matrix(1.0254261,0,0,1.0022479,-9.1237225,-33.22013)">
      <path
         inkscape:connector-curvature="0"
         id="path4598"
         d="m 23.783078,44.110649 -4.508983,4.648736 -3.980261,-5.27284 a 12.770835,12.770835 0 0 0 -2.631282,1.045173 l 0.825522,6.441784 -6.571368,-0.17469 a 12.770835,12.770835 0 0 0 -0.7896172,2.557631 12.770835,12.770835 0 0 0 -0.027504,0.173796 l 5.5120272,3.347264 -4.1861363,4.972095 a 12.770835,12.770835 0 0 0 1.6563998,2.37002 l 5.9760855,-2.194035 1.267643,6.324612 a 12.770835,12.770835 0 0 0 2.907828,0.192046 l 1.997862,-6.001057 5.727797,2.948399 a 12.770835,12.770835 0 0 0 1.98019,-2.135962 l -3.455675,-5.317616 5.926699,-2.662342 a 12.770835,12.770835 0 0 0 -0.414249,-2.850168 l -6.383635,-0.620945 1.631047,-6.361785 a 12.770835,12.770835 0 0 0 -2.46039,-1.430116 z m -4.472442,8.529047 a 3.1927084,3.1927084 0 0 1 2.523332,3.744269 3.1927084,3.1927084 0 0 1 -3.744267,2.523336 3.1927084,3.1927084 0 0 1 -2.523335,-3.744269 3.1927084,3.1927084 0 0 1 3.74427,-2.523336 z"
         style="opacity:1;fill:#ffffff;fill-opacity:1;stroke:none;stroke-width:0.80446196;stroke-linecap:round;stroke-miterlimit:4;stroke-dasharray:none;stroke-opacity:1;paint-order:fill markers stroke" />
    </g>
  </g>
</svg>
