<svg width="432" height="432" viewBox="0 0 432 432" version="1.1" xmlns="http://www.w3.org/2000/svg" xmlns:xlink="http://www.w3.org/1999/xlink"><path d="M327.701055 207.910521C332.148305 269.536982 285.769842 323.250767 224.085909 327.698037 162.459733 332.203064 108.746195 285.766631 104.298945 224.082413 99.851695 162.455953 146.230158 108.742167 207.914091 104.294897 269.540268 99.847627 323.253805 146.226304 327.701055 207.910521ZM266.825713 187.060332C266.132635 177.530467 257.931213 164.823979 245.80235 165.690331 233.211435 166.614439 229.052967 177.703736 227.204759 182.728574 225.356552 187.868926 220.678275 193.817872 215.249166 193.817872 209.762299 193.817872 206.12364 189.659386 201.214338 181.342412 196.131767 172.736656 184.638225 169.329006 175.628212 173.660764 166.791469 177.99252 163.845888 187.118088 164.885505 197.976359 166.791469 218.480008 178.747062 220.963549 180.595271 234.536386 181.577131 241.698225 175.166161 252.960792 164.769992 253.71163 152.698885 254.577982 145.306054 246.607549 144.38195 236.442359 143.77659 229.503969 144.522813 223.588655 145.368205 217.784536L145.728426 215.331988C146.864948 207.574885 147.862357 199.786455 145.71035 189.774899 144.38195 183.768196 140.512265 179.840737 135.083155 179.840737 129.711801 179.840737 125.437821 183.88371 123.358587 189.774899 121.33711 195.723845 118.969094 208.372575 120.008711 222.985035 123.820639 275.543685 166.849226 316.088929 222.930779 311.988199 274.160787 308.291767 315.976487 263.530279 311.991289 209.065656L311.870417 207.031064C311.727872 204.821915 311.484445 202.337576 310.605133 198.380656 308.987951 191.334332 303.327816 188.215467 297.956462 188.619764 292.585108 189.024061 286.924972 191.911899 284.961251 201.730548 283.055287 211.49144 286.520676 234.016576 283.113044 249.206603 280.282975 261.91309 268.500651 265.725036 261.281089 265.031955 254.061528 264.338874 241.932665 257.177036 243.549847 242.506819 245.686837 223.273819 269.193729 219.923927 266.825713 187.060332Z" fill="#fff"/></svg>