<?xml version="1.0" encoding="UTF-8" standalone="no"?>
<!-- Created with Inkscape (http://www.inkscape.org/) -->

<svg
   xmlns:dc="http://purl.org/dc/elements/1.1/"
   xmlns:cc="http://creativecommons.org/ns#"
   xmlns:rdf="http://www.w3.org/1999/02/22-rdf-syntax-ns#"
   xmlns:svg="http://www.w3.org/2000/svg"
   xmlns="http://www.w3.org/2000/svg"
   xmlns:sodipodi="http://sodipodi.sourceforge.net/DTD/sodipodi-0.dtd"
   xmlns:inkscape="http://www.inkscape.org/namespaces/inkscape"
   width="256"
   height="256"
   viewBox="0 0 239.99999 240.00001"
   id="svg2"
   version="1.1"
   inkscape:version="0.92.3 (2405546, 2018-03-11)"
   sodipodi:docname="icons.svg">
  <defs
     id="defs4" />
  <sodipodi:namedview
     id="base"
     pagecolor="#ffffff"
     bordercolor="#666666"
     borderopacity="1.0"
     inkscape:pageopacity="0.0"
     inkscape:pageshadow="2"
     inkscape:zoom="5.6"
     inkscape:cx="52.882988"
     inkscape:cy="217.39608"
     inkscape:document-units="px"
     inkscape:current-layer="layer1"
     showgrid="true"
     inkscape:window-width="1920"
     inkscape:window-height="1017"
     inkscape:window-x="-8"
     inkscape:window-y="-8"
     inkscape:window-maximized="1"
     inkscape:snap-global="false"
     units="px"
     inkscape:pagecheckerboard="true">
    <inkscape:grid
       type="xygrid"
       id="grid4648"
       spacingx="14.999988"
       spacingy="15"
       units="mm" />
  </sodipodi:namedview>
  <metadata
     id="metadata7">
    <rdf:RDF>
      <cc:Work
         rdf:about="">
        <dc:format>image/svg+xml</dc:format>
        <dc:type
           rdf:resource="http://purl.org/dc/dcmitype/StillImage" />
        <dc:title />
      </cc:Work>
    </rdf:RDF>
  </metadata>
  <g
     inkscape:label="Calque 1"
     inkscape:groupmode="layer"
     id="layer1"
     transform="translate(0,-812.36214)">
    <g
       id="g4171"
       inkscape:export-filename="paint.png"
       inkscape:export-xdpi="5.1167521"
       inkscape:export-ydpi="5.1167521"
       transform="matrix(0.05345512,0,0,0.05345512,61.988387,818.64269)">
      <rect
         ry="80"
         y="-107.63779"
         x="-1148.5714"
         height="542.85712"
         width="542.85712"
         id="rect4136"
         style="opacity:0.98999999;fill:#787878;fill-opacity:1;stroke:none;stroke-width:3.9000001;stroke-linecap:round;stroke-linejoin:round;stroke-miterlimit:4;stroke-dasharray:none;stroke-opacity:0.78025477" />
      <path
         sodipodi:nodetypes="ccccccc"
         inkscape:connector-curvature="0"
         id="path4149"
         d="m -789.74922,166.32602 189.71861,-192.604259 -10.61858,-50.591902 -29.73202,-26.627319 -29.02412,-1.77515 -150.07591,233.43281 z"
         style="fill:#0500ad;fill-opacity:1;fill-rule:evenodd;stroke:none;stroke-width:0.78470004px;stroke-linecap:butt;stroke-linejoin:miter;stroke-opacity:1" />
      <path
         sodipodi:nodetypes="cssszc"
         inkscape:connector-curvature="0"
         id="path4138"
         d="m -944.78048,348.27934 c 10.03196,-71.74943 -9.17433,-105.57608 34.68738,-182.8409 22.9991,-40.51427 86.10305,-50.52319 108.84426,-23.73355 20.62858,24.30091 6.44281,89.02516 -8.32173,108.94096 -29.65678,40.00383 -58.4402,12.99273 -89.90401,38.16582 -31.46374,25.17308 -45.3059,59.46767 -45.3059,59.46767 z"
         style="fill:#3b3b3b;fill-opacity:1;fill-rule:evenodd;stroke:none;stroke-width:0.78470004px;stroke-linecap:butt;stroke-linejoin:miter;stroke-opacity:1" />
      <path
         sodipodi:nodetypes="zcscsz"
         inkscape:connector-curvature="0"
         id="path4140"
         d="m -918.40125,172.37002 c -28.48826,30.84129 -16.73285,106.91466 -26.37958,175.90877 0,0 13.84265,-34.29412 45.30639,-59.4672 26.67511,-21.34181 54.25492,0.14321 79.24242,-18.81872 13.3761,-16.61552 1.13341,-56.53794 -11.99125,-78.81506 -19.40493,-32.93691 -57.68973,-49.64909 -86.17798,-18.80779 z"
         style="fill:#ff0000;fill-opacity:1;fill-rule:evenodd;stroke:none;stroke-width:0.78470004px;stroke-linecap:butt;stroke-linejoin:miter;stroke-opacity:1" />
      <path
         sodipodi:nodetypes="ccccc"
         inkscape:connector-curvature="0"
         id="path4145"
         d="m -823.02078,129.93535 c 3.53954,-2.66273 46.01384,-70.118598 46.01384,-70.118598 27.93041,6.705103 33.53263,15.685267 44.59804,50.591898 l -58.75614,59.46767 c -2.38254,-19.4446 -20.24996,-29.7477 -31.85574,-39.94097 z"
         style="fill:#bcbcbc;fill-opacity:1;fill-rule:evenodd;stroke:none;stroke-width:0.78470004px;stroke-linecap:butt;stroke-linejoin:miter;stroke-opacity:1" />
      <rect
         style="opacity:0.98999999;fill:none;fill-opacity:1;stroke:#000000;stroke-width:20;stroke-linecap:round;stroke-linejoin:round;stroke-miterlimit:4;stroke-dasharray:none;stroke-opacity:1"
         id="rect4147"
         width="542.85712"
         height="542.85712"
         x="-1148.5714"
         y="-107.63779"
         ry="80" />
    </g>
    <g
       id="g4179"
       inkscape:export-filename="line.png"
       inkscape:export-xdpi="5.1167512"
       inkscape:export-ydpi="5.1167512"
       transform="matrix(0.05345512,0,0,0.05345512,122.20138,784.18758)">
      <rect
         style="opacity:0.98999999;fill:#787878;fill-opacity:1;stroke:none;stroke-width:3.9000001;stroke-linecap:round;stroke-linejoin:round;stroke-miterlimit:4;stroke-dasharray:none;stroke-opacity:0.78025477"
         id="rect4151"
         width="542.85712"
         height="542.85712"
         x="-1151.9188"
         y="536.92365"
         ry="80" />
      <rect
         ry="80"
         y="536.92365"
         x="-1151.9188"
         height="542.85712"
         width="542.85712"
         id="rect4161"
         style="opacity:0.98999999;fill:none;fill-opacity:1;stroke:#000000;stroke-width:20;stroke-linecap:round;stroke-linejoin:round;stroke-miterlimit:4;stroke-dasharray:none;stroke-opacity:1" />
      <path
         sodipodi:nodetypes="cc"
         inkscape:connector-curvature="0"
         id="path4163"
         d="M -1065.0895,1003.8545 -697.29497,653.54057"
         style="fill:none;fill-rule:evenodd;stroke:#ff0000;stroke-width:40;stroke-linecap:round;stroke-linejoin:round;stroke-miterlimit:4;stroke-dasharray:none;stroke-opacity:1" />
    </g>
    <g
       id="g4282"
       inkscape:export-filename="paint_s.png"
       inkscape:export-xdpi="5.1167517"
       inkscape:export-ydpi="5.1167517"
       transform="matrix(0.05345512,0,0,0.05345512,50.004963,820.32271)">
      <rect
         style="opacity:0.98999999;fill:#d8d8d8;fill-opacity:1;stroke:#b3b3b3;stroke-width:3.9000001;stroke-linecap:round;stroke-linejoin:round;stroke-miterlimit:4;stroke-dasharray:none;stroke-opacity:1"
         id="rect4196"
         width="542.85712"
         height="542.85712"
         x="-362.85712"
         y="-139.06636"
         ry="80" />
      <rect
         ry="80"
         y="-139.06636"
         x="-362.85712"
         height="542.85712"
         width="542.85712"
         id="rect4206"
         style="opacity:0.98999999;fill:none;fill-opacity:1;stroke:#000000;stroke-width:20;stroke-linecap:round;stroke-linejoin:round;stroke-miterlimit:4;stroke-dasharray:none;stroke-opacity:1" />
    </g>
    <g
       id="g4277"
       inkscape:export-filename="line_s.png"
       inkscape:export-xdpi="5.1167517"
       inkscape:export-ydpi="5.1167517"
       transform="matrix(0.05345512,0,0,0.05345512,110.21796,785.8676)">
      <rect
         ry="80"
         y="505.49509"
         x="-366.20453"
         height="542.85712"
         width="542.85712"
         id="rect4210"
         style="opacity:0.98999999;fill:#d8d8d8;fill-opacity:1;stroke:#b3b3b3;stroke-width:3.9000001;stroke-linecap:round;stroke-linejoin:round;stroke-miterlimit:4;stroke-dasharray:none;stroke-opacity:1"
         inkscape:export-filename="line_s.png"
         inkscape:export-xdpi="10"
         inkscape:export-ydpi="10" />
      <rect
         style="opacity:0.98999999;fill:none;fill-opacity:1;stroke:#000000;stroke-width:20;stroke-linecap:round;stroke-linejoin:round;stroke-miterlimit:4;stroke-dasharray:none;stroke-opacity:1"
         id="rect4212"
         width="542.85712"
         height="542.85712"
         x="-366.20453"
         y="505.49509"
         ry="80" />
      <path
         style="fill:none;fill-rule:evenodd;stroke:#ff0000;stroke-width:40;stroke-linecap:round;stroke-linejoin:round;stroke-miterlimit:4;stroke-dasharray:none;stroke-opacity:1"
         d="M -279.37521,972.42593 88.41932,622.112"
         id="path4214"
         inkscape:connector-curvature="0"
         sodipodi:nodetypes="cc" />
    </g>
    <g
       id="g934"
       transform="matrix(0.05345512,0,0,0.05345512,167.53359,706.15482)"
       inkscape:export-filename="color_picker.png"
       inkscape:export-xdpi="5.1167517"
       inkscape:export-ydpi="5.1167517">
      <g
         transform="translate(279.31757,795.49512)"
         id="g867"
         inkscape:export-filename="line_strip.png"
         inkscape:export-xdpi="5.1167517"
         inkscape:export-ydpi="5.1167517">
        <g
           id="g865">
          <rect
             style="opacity:0.98999999;fill:#787878;fill-opacity:1;stroke:none;stroke-width:3.9000001;stroke-linecap:round;stroke-linejoin:round;stroke-miterlimit:4;stroke-dasharray:none;stroke-opacity:0.78025477"
             id="rect859"
             width="542.85712"
             height="542.85712"
             x="-1156.2046"
             y="1201.2094"
             ry="80" />
          <rect
             ry="80"
             y="1201.2094"
             x="-1156.2046"
             height="542.85712"
             width="542.85712"
             id="rect861"
             style="opacity:0.98999999;fill:none;fill-opacity:1;stroke:#000000;stroke-width:20;stroke-linecap:round;stroke-linejoin:round;stroke-miterlimit:4;stroke-dasharray:none;stroke-opacity:1" />
        </g>
      </g>
      <g
         transform="matrix(0.23302981,-0.2129054,0.2129054,0.23302981,-222.35658,1086.6868)"
         id="g903">
        <g
           id="g894"
           transform="translate(0,-37.880722)">
          <path
             id="rect881"
             transform="scale(0.9375)"
             d="m -4363.8594,1954.8848 c -89.5399,0 -161.623,72.085 -161.623,161.625 0,89.5399 72.0831,161.625 161.623,161.625 h 741.6934 l -352.7402,-323.25 z"
             style="opacity:1;fill:#d33535;fill-opacity:1;stroke:none;stroke-width:30.23622131;stroke-linecap:round;stroke-linejoin:round;stroke-miterlimit:4;stroke-dasharray:none;stroke-opacity:1;paint-order:fill markers stroke"
             inkscape:connector-curvature="0" />
          <rect
             style="opacity:1;fill:none;fill-opacity:1;stroke:#000000;stroke-width:28.34645844;stroke-linecap:round;stroke-linejoin:round;stroke-miterlimit:4;stroke-dasharray:none;stroke-opacity:1;paint-order:fill markers stroke"
             id="rect883"
             width="1537.9572"
             height="303.04575"
             x="-4242.6406"
             y="1832.7051"
             ry="151.52287" />
        </g>
        <path
           inkscape:connector-curvature="0"
           style="opacity:1;fill:#000000;fill-opacity:1;stroke:#000000;stroke-width:30.23622131;stroke-linecap:round;stroke-linejoin:round;stroke-miterlimit:4;stroke-dasharray:none;stroke-opacity:1;paint-order:fill markers stroke"
           d="m -3386.0312,1748.8145 c -62.678,0 -113.1368,50.4587 -113.1368,113.1367 v 428.3047 c 0,62.6779 50.4588,113.1367 113.1368,113.1367 h 40.4062 c 62.6779,0 113.1367,-50.4588 113.1367,-113.1367 v -12.1211 h 258.5996 c 89.5397,0 161.6231,-72.0853 161.6231,-161.625 v -80.8125 c 0,-89.5397 -72.0834,-161.6231 -161.6231,-161.6231 h -258.5996 v -12.123 c 0,-62.678 -50.4588,-113.1367 -113.1367,-113.1367 z"
           transform="scale(0.9375)"
           id="rect890" />
      </g>
    </g>
    <g
       id="g945"
       transform="matrix(0.05345512,0,0,0.05345512,163.12699,707.57226)"
       inkscape:export-filename="color_picker_s.png"
       inkscape:export-xdpi="5.1167517"
       inkscape:export-ydpi="5.1167517">
      <g
         transform="translate(137.57552,800.40719)"
         id="g877"
         inkscape:export-filename="line_strip_s.png"
         inkscape:export-xdpi="5.1167517"
         inkscape:export-ydpi="5.1167517">
        <g
           transform="translate(785.71429,-31.428571)"
           id="g875">
          <rect
             ry="80"
             y="1201.2094"
             x="-1156.2046"
             height="542.85712"
             width="542.85712"
             id="rect869"
             style="opacity:0.98999999;fill:#d8d8d8;fill-opacity:1;stroke:#b3b3b3;stroke-width:3.9000001;stroke-linecap:round;stroke-linejoin:round;stroke-miterlimit:4;stroke-dasharray:none;stroke-opacity:1" />
          <rect
             style="opacity:0.98999999;fill:none;fill-opacity:1;stroke:#000000;stroke-width:20;stroke-linecap:round;stroke-linejoin:round;stroke-miterlimit:4;stroke-dasharray:none;stroke-opacity:1"
             id="rect871"
             width="542.85712"
             height="542.85712"
             x="-1156.2046"
             y="1201.2094"
             ry="80" />
        </g>
      </g>
      <g
         id="g923"
         transform="matrix(0.23302981,-0.2129054,0.2129054,0.23302981,421.61566,1060.1703)">
        <g
           transform="translate(0,-37.880722)"
           id="g919">
          <path
             inkscape:connector-curvature="0"
             style="opacity:1;fill:#d33535;fill-opacity:1;stroke:none;stroke-width:30.23622131;stroke-linecap:round;stroke-linejoin:round;stroke-miterlimit:4;stroke-dasharray:none;stroke-opacity:1;paint-order:fill markers stroke"
             d="m -4363.8594,1954.8848 c -89.5399,0 -161.623,72.085 -161.623,161.625 0,89.5399 72.0831,161.625 161.623,161.625 h 741.6934 l -352.7402,-323.25 z"
             transform="scale(0.9375)"
             id="path915" />
          <rect
             ry="151.52287"
             y="1832.7051"
             x="-4242.6406"
             height="303.04575"
             width="1537.9572"
             id="rect917"
             style="opacity:1;fill:none;fill-opacity:1;stroke:#000000;stroke-width:28.34645844;stroke-linecap:round;stroke-linejoin:round;stroke-miterlimit:4;stroke-dasharray:none;stroke-opacity:1;paint-order:fill markers stroke" />
        </g>
        <path
           id="path921"
           transform="scale(0.9375)"
           d="m -3386.0312,1748.8145 c -62.678,0 -113.1368,50.4587 -113.1368,113.1367 v 428.3047 c 0,62.6779 50.4588,113.1367 113.1368,113.1367 h 40.4062 c 62.6779,0 113.1367,-50.4588 113.1367,-113.1367 v -12.1211 h 258.5996 c 89.5397,0 161.6231,-72.0853 161.6231,-161.625 v -80.8125 c 0,-89.5397 -72.0834,-161.6231 -161.6231,-161.6231 h -258.5996 v -12.123 c 0,-62.678 -50.4588,-113.1367 -113.1367,-113.1367 z"
           style="opacity:1;fill:#000000;fill-opacity:1;stroke:#000000;stroke-width:30.23622131;stroke-linecap:round;stroke-linejoin:round;stroke-miterlimit:4;stroke-dasharray:none;stroke-opacity:1;paint-order:fill markers stroke"
           inkscape:connector-curvature="0" />
      </g>
    </g>
    <g
       id="g964"
       inkscape:export-filename="eraser.png"
       inkscape:export-xdpi="5"
       inkscape:export-ydpi="5"
       transform="matrix(0.05345512,0,0,0.05345512,243.76699,654.5194)">
      <g
         id="g911"
         transform="translate(-303.04576,965.95832)"
         inkscape:export-filename="color_picker.png"
         inkscape:export-xdpi="5.1167517"
         inkscape:export-ydpi="5.1167517">
        <g
           transform="translate(279.31757,795.49512)"
           id="g899"
           inkscape:export-filename="line_strip.png"
           inkscape:export-xdpi="5.1167517"
           inkscape:export-ydpi="5.1167517">
          <g
             id="g897">
            <rect
               style="opacity:0.98999999;fill:#787878;fill-opacity:1;stroke:none;stroke-width:3.9000001;stroke-linecap:round;stroke-linejoin:round;stroke-miterlimit:4;stroke-dasharray:none;stroke-opacity:0.78025477"
               id="rect893"
               width="542.85712"
               height="542.85712"
               x="-1156.2046"
               y="1201.2094"
               ry="80" />
            <rect
               ry="80"
               y="1201.2094"
               x="-1156.2046"
               height="542.85712"
               width="542.85712"
               id="rect895"
               style="opacity:0.98999999;fill:none;fill-opacity:1;stroke:#000000;stroke-width:20;stroke-linecap:round;stroke-linejoin:round;stroke-miterlimit:4;stroke-dasharray:none;stroke-opacity:1" />
          </g>
        </g>
        <g
           transform="matrix(0.23302981,-0.2129054,0.2129054,0.23302981,-222.35658,1086.6868)"
           id="g909">
          <g
             id="g905"
             transform="translate(0,-37.880722)" />
        </g>
      </g>
      <g
         transform="matrix(0.90608148,-0.76463673,0.76463673,0.90608148,-3101.9247,-1060.7398)"
         id="g943">
        <rect
           style="opacity:1;fill:#2765b9;fill-opacity:1;stroke:none;stroke-width:28.34645844;stroke-linecap:round;stroke-linejoin:round;stroke-miterlimit:4;stroke-dasharray:none;stroke-opacity:1;paint-order:fill markers stroke"
           id="rect934"
           width="405.3237"
           height="189.40359"
           x="-1125.0574"
           y="3866.8997"
           ry="37.880825" />
        <rect
           ry="37.880825"
           y="3866.8997"
           x="-893.98499"
           height="189.40356"
           width="174.25134"
           id="rect936"
           style="opacity:1;fill:#d743a1;fill-opacity:1;stroke:none;stroke-width:28.34645844;stroke-linecap:round;stroke-linejoin:round;stroke-miterlimit:4;stroke-dasharray:none;stroke-opacity:1;paint-order:fill markers stroke" />
        <rect
           style="opacity:1;fill:#d743a1;fill-opacity:1;stroke:none;stroke-width:28.34645844;stroke-linecap:round;stroke-linejoin:round;stroke-miterlimit:4;stroke-dasharray:none;stroke-opacity:1;paint-order:fill markers stroke"
           id="rect938"
           width="118.00134"
           height="189.40356"
           x="-893.98499"
           y="3866.8997"
           ry="0" />
      </g>
    </g>
    <g
       id="g977"
       inkscape:export-filename="eraser_s.png"
       inkscape:export-xdpi="5"
       inkscape:export-ydpi="5"
       transform="matrix(0.05345512,0,0,0.05345512,227.24944,653.08757)">
      <g
         id="g932"
         transform="translate(-76.482294,1019.2606)"
         inkscape:export-filename="color_picker_s.png"
         inkscape:export-xdpi="5.1167517"
         inkscape:export-ydpi="5.1167517">
        <g
           transform="translate(137.57552,800.40719)"
           id="g920"
           inkscape:export-filename="line_strip_s.png"
           inkscape:export-xdpi="5.1167517"
           inkscape:export-ydpi="5.1167517">
          <g
             transform="translate(785.71429,-31.428571)"
             id="g917">
            <rect
               ry="80"
               y="1201.2094"
               x="-1156.2046"
               height="542.85712"
               width="542.85712"
               id="rect913"
               style="opacity:0.98999999;fill:#d8d8d8;fill-opacity:1;stroke:#b3b3b3;stroke-width:3.9000001;stroke-linecap:round;stroke-linejoin:round;stroke-miterlimit:4;stroke-dasharray:none;stroke-opacity:1" />
            <rect
               style="opacity:0.98999999;fill:none;fill-opacity:1;stroke:#000000;stroke-width:20;stroke-linecap:round;stroke-linejoin:round;stroke-miterlimit:4;stroke-dasharray:none;stroke-opacity:1"
               id="rect915"
               width="542.85712"
               height="542.85712"
               x="-1156.2046"
               y="1201.2094"
               ry="80" />
          </g>
        </g>
        <g
           id="g930"
           transform="matrix(0.23302981,-0.2129054,0.2129054,0.23302981,421.61566,1060.1703)">
          <g
             transform="translate(0,-37.880722)"
             id="g926" />
        </g>
      </g>
      <g
         id="g951"
         transform="matrix(0.90608148,-0.76463673,0.76463673,0.90608148,-2231.389,-1033.9541)">
        <rect
           ry="37.880825"
           y="3866.8997"
           x="-1125.0574"
           height="189.40359"
           width="405.3237"
           id="rect945"
           style="opacity:1;fill:#2765b9;fill-opacity:1;stroke:none;stroke-width:28.34645844;stroke-linecap:round;stroke-linejoin:round;stroke-miterlimit:4;stroke-dasharray:none;stroke-opacity:1;paint-order:fill markers stroke" />
        <rect
           style="opacity:1;fill:#d743a1;fill-opacity:1;stroke:none;stroke-width:28.34645844;stroke-linecap:round;stroke-linejoin:round;stroke-miterlimit:4;stroke-dasharray:none;stroke-opacity:1;paint-order:fill markers stroke"
           id="rect947"
           width="174.25134"
           height="189.40356"
           x="-893.98499"
           y="3866.8997"
           ry="37.880825" />
        <rect
           ry="0"
           y="3866.8997"
           x="-893.98499"
           height="189.40356"
           width="118.00134"
           id="rect949"
           style="opacity:1;fill:#d743a1;fill-opacity:1;stroke:none;stroke-width:28.34645844;stroke-linecap:round;stroke-linejoin:round;stroke-miterlimit:4;stroke-dasharray:none;stroke-opacity:1;paint-order:fill markers stroke" />
      </g>
    </g>
    <g
       transform="matrix(0.05345512,0,0,0.05345512,242.06745,814.1541)"
       inkscape:export-ydpi="5.1167512"
       inkscape:export-xdpi="5.1167512"
       inkscape:export-filename="line.png"
       id="g4688">
      <rect
         ry="80"
         y="536.92365"
         x="-1151.9188"
         height="542.85712"
         width="542.85712"
         id="rect4682"
         style="opacity:0.98999999;fill:#787878;fill-opacity:1;stroke:none;stroke-width:3.9000001;stroke-linecap:round;stroke-linejoin:round;stroke-miterlimit:4;stroke-dasharray:none;stroke-opacity:0.78025477" />
      <rect
         style="opacity:0.98999999;fill:none;fill-opacity:1;stroke:#000000;stroke-width:20;stroke-linecap:round;stroke-linejoin:round;stroke-miterlimit:4;stroke-dasharray:none;stroke-opacity:1"
         id="rect4684"
         width="542.85712"
         height="542.85712"
         x="-1151.9188"
         y="536.92365"
         ry="80" />
    </g>
    <g
       transform="matrix(0.05345512,0,0,0.05345512,230.08403,815.83412)"
       inkscape:export-ydpi="5.1167517"
       inkscape:export-xdpi="5.1167517"
       inkscape:export-filename="line_s.png"
       id="g4696">
      <rect
         inkscape:export-ydpi="10"
         inkscape:export-xdpi="10"
         inkscape:export-filename="line_s.png"
         style="opacity:0.98999999;fill:#d8d8d8;fill-opacity:1;stroke:#b3b3b3;stroke-width:3.9000001;stroke-linecap:round;stroke-linejoin:round;stroke-miterlimit:4;stroke-dasharray:none;stroke-opacity:1"
         id="rect4690"
         width="542.85712"
         height="542.85712"
         x="-366.20453"
         y="505.49509"
         ry="80" />
      <rect
         ry="80"
         y="505.49509"
         x="-366.20453"
         height="542.85712"
         width="542.85712"
         id="rect4692"
         style="opacity:0.98999999;fill:none;fill-opacity:1;stroke:#000000;stroke-width:20;stroke-linecap:round;stroke-linejoin:round;stroke-miterlimit:4;stroke-dasharray:none;stroke-opacity:1" />
    </g>
    <g
       id="g4710"
       transform="matrix(1.2954523,0,0,1.2954523,-54.792114,-254.19504)">
      <rect
         transform="rotate(53.301448)"
         y="352.91425"
         x="795.80768"
         height="11.872142"
         width="11.695822"
         id="rect4698"
         style="opacity:1;fill:#d7d7d7;fill-opacity:1;stroke:#000000;stroke-width:0.65825737;stroke-linecap:round;stroke-linejoin:round;stroke-miterlimit:4;stroke-dasharray:none;stroke-opacity:1;paint-order:fill markers stroke" />
      <path
         inkscape:connector-curvature="0"
         id="path4702"
         d="m 199.63728,858.16571 -14.97151,0.0573 5.4291,7.14138 z"
         style="fill:#001cf6;fill-opacity:1;fill-rule:evenodd;stroke:none;stroke-width:0.9375px;stroke-linecap:butt;stroke-linejoin:miter;stroke-opacity:1"
         sodipodi:nodetypes="cccc" />
      <rect
         style="opacity:1;fill:none;fill-opacity:1;stroke:#000000;stroke-width:0.65825737;stroke-linecap:round;stroke-linejoin:round;stroke-miterlimit:4;stroke-dasharray:none;stroke-opacity:1;paint-order:fill markers stroke"
         id="rect4704"
         width="11.695822"
         height="11.872142"
         x="795.80768"
         y="352.91425"
         transform="rotate(53.301448)" />
      <path
         inkscape:connector-curvature="0"
         id="path4700"
         d="m 191.76897,848.03736 8.62165,11.21652"
         style="fill:none;fill-rule:evenodd;stroke:#000000;stroke-width:0.9375px;stroke-linecap:butt;stroke-linejoin:miter;stroke-opacity:1" />
    </g>
    <path
       style="opacity:1;fill:#092aff;fill-opacity:1;stroke:none;stroke-width:1.06597471;stroke-linecap:round;stroke-linejoin:round;stroke-miterlimit:4;stroke-dasharray:none;stroke-opacity:1;paint-order:fill markers stroke"
       d="m 204.11676,866.78018 c -3.44173,0.014 -0.26725,-6.10767 0.0512,-6.73984 0.26334,0.65666 3.39061,6.72587 -0.0512,6.73984 z"
       id="path4715"
       inkscape:connector-curvature="0"
       sodipodi:nodetypes="zcz" />
    <g
       transform="matrix(1.2954523,0,0,1.2954523,-24.658185,-254.19504)"
       id="g4726">
      <rect
         style="opacity:1;fill:#d7d7d7;fill-opacity:1;stroke:#000000;stroke-width:0.65825737;stroke-linecap:round;stroke-linejoin:round;stroke-miterlimit:4;stroke-dasharray:none;stroke-opacity:1;paint-order:fill markers stroke"
         id="rect4718"
         width="11.695822"
         height="11.872142"
         x="795.80768"
         y="352.91425"
         transform="rotate(53.301448)" />
      <path
         style="fill:#001cf6;fill-opacity:1;fill-rule:evenodd;stroke:none;stroke-width:0.9375px;stroke-linecap:butt;stroke-linejoin:miter;stroke-opacity:1"
         d="m 199.63728,858.16571 -14.97151,0.025 5.4291,7.17369 z"
         id="path4720"
         inkscape:connector-curvature="0"
         sodipodi:nodetypes="cccc" />
      <rect
         transform="rotate(53.301448)"
         y="352.91425"
         x="795.80768"
         height="11.872142"
         width="11.695822"
         id="rect4722"
         style="opacity:1;fill:none;fill-opacity:1;stroke:#000000;stroke-width:0.65825737;stroke-linecap:round;stroke-linejoin:round;stroke-miterlimit:4;stroke-dasharray:none;stroke-opacity:1;paint-order:fill markers stroke" />
      <path
         style="fill:none;fill-rule:evenodd;stroke:#000000;stroke-width:0.9375px;stroke-linecap:butt;stroke-linejoin:miter;stroke-opacity:1"
         d="m 191.76897,848.03736 8.62165,11.21652"
         id="path4724"
         inkscape:connector-curvature="0" />
    </g>
    <path
       sodipodi:nodetypes="zcz"
       inkscape:connector-curvature="0"
       id="path4728"
       d="m 234.25069,866.78018 c -3.44173,0.014 -0.26725,-6.10767 0.0512,-6.73984 0.26334,0.65666 3.39061,6.72587 -0.0512,6.73984 z"
       style="opacity:1;fill:#092aff;fill-opacity:1;stroke:none;stroke-width:1.06597471;stroke-linecap:round;stroke-linejoin:round;stroke-miterlimit:4;stroke-dasharray:none;stroke-opacity:1;paint-order:fill markers stroke" />
    <path
       sodipodi:nodetypes="ccccccc"
       inkscape:connector-curvature="0"
       id="path4149-2"
       d="m 48.961294,827.91663 10.14143,-10.29569 -0.567616,-2.70439 -1.589329,-1.42337 -1.551488,-0.0949 -8.022325,12.47818 z"
       style="fill:#0500ad;fill-opacity:1;fill-rule:evenodd;stroke:none;stroke-width:0.04194624px;stroke-linecap:butt;stroke-linejoin:miter;stroke-opacity:1" />
    <path
       sodipodi:nodetypes="cssszc"
       inkscape:connector-curvature="0"
       id="path4138-0"
       d="m 40.67408,837.64296 c 0.53626,-3.83537 -0.490414,-5.64358 1.854218,-9.77378 1.22942,-2.16569 4.602649,-2.70072 5.818283,-1.26868 1.102703,1.29901 0.344401,4.75885 -0.444839,5.82345 -1.585307,2.13841 -3.123928,0.69453 -4.805829,2.04016 -1.681898,1.34563 -2.421833,3.17885 -2.421833,3.17885 z"
       style="fill:#3b3b3b;fill-opacity:1;fill-rule:evenodd;stroke:none;stroke-width:0.04194624px;stroke-linecap:butt;stroke-linejoin:miter;stroke-opacity:1" />
    <path
       sodipodi:nodetypes="zcscsz"
       inkscape:connector-curvature="0"
       id="path4140-6"
       d="m 42.084185,828.23971 c -1.522843,1.64862 -0.894456,5.71513 -1.410123,9.40322 0,0 0.73996,-1.83319 2.421858,-3.17882 1.425921,-1.14083 2.900203,0.008 4.235913,-1.00596 0.715021,-0.88818 0.06059,-3.02224 -0.640994,-4.21307 -1.037293,-1.76065 -3.083811,-2.654 -4.606654,-1.00537 z"
       style="fill:#ff0000;fill-opacity:1;fill-rule:evenodd;stroke:none;stroke-width:0.04194624px;stroke-linecap:butt;stroke-linejoin:miter;stroke-opacity:1" />
    <path
       sodipodi:nodetypes="ccccc"
       inkscape:connector-curvature="0"
       id="path4145-2"
       d="m 47.182759,825.97136 c 0.189207,-0.14234 2.459675,-3.7482 2.459675,-3.7482 1.493024,0.35842 1.792491,0.83846 2.383994,2.7044 l -3.140816,3.17885 c -0.127359,-1.03942 -1.082464,-1.59017 -1.702853,-2.13505 z"
       style="fill:#bcbcbc;fill-opacity:1;fill-rule:evenodd;stroke:none;stroke-width:0.04194624px;stroke-linecap:butt;stroke-linejoin:miter;stroke-opacity:1" />
    <path
       style="opacity:1;fill:#ff0909;fill-opacity:1;stroke:none;stroke-width:0.9375;stroke-linecap:round;stroke-linejoin:round;stroke-miterlimit:4;stroke-dasharray:none;stroke-opacity:1;paint-order:fill markers stroke"
       id="path922"
       sodipodi:type="arc"
       sodipodi:cx="4.5200896"
       sodipodi:cy="831.38"
       sodipodi:rx="1.8415179"
       sodipodi:ry="1.8415179"
       sodipodi:start="4.7488489"
       sodipodi:end="4.73911"
       d="m 4.5872163,829.53971 a 1.8415179,1.8415179 0 0 1 1.7733254,1.90294 1.8415179,1.8415179 0 0 1 -1.8986168,1.77795 1.8415179,1.8415179 0 0 1 -1.7825706,-1.89428 1.8415179,1.8415179 0 0 1 1.8899367,-1.78718 L 4.5200896,831.38 Z" />
    <path
       d="m 9.4421267,835.56651 a 1.8415179,1.8415179 0 0 1 1.7733253,1.90294 1.8415179,1.8415179 0 0 1 -1.8986167,1.77795 1.8415179,1.8415179 0 0 1 -1.7825706,-1.89428 1.8415179,1.8415179 0 0 1 1.8899367,-1.78718 L 9.375,837.4068 Z"
       sodipodi:end="4.73911"
       sodipodi:start="4.7488489"
       sodipodi:ry="1.8415179"
       sodipodi:rx="1.8415179"
       sodipodi:cy="837.4068"
       sodipodi:cx="9.375"
       sodipodi:type="arc"
       id="path924"
       style="opacity:1;fill:#ff0909;fill-opacity:1;stroke:none;stroke-width:0.9375;stroke-linecap:round;stroke-linejoin:round;stroke-miterlimit:4;stroke-dasharray:none;stroke-opacity:1;paint-order:fill markers stroke" />
    <path
       d="m 4.5872163,821.50401 a 1.8415179,1.8415179 0 0 1 1.7733254,1.90294 1.8415179,1.8415179 0 0 1 -1.8986168,1.77795 1.8415179,1.8415179 0 0 1 -1.7825706,-1.89428 1.8415179,1.8415179 0 0 1 1.8899367,-1.78718 l -0.049201,1.84086 z"
       sodipodi:end="4.73911"
       sodipodi:start="4.7488489"
       sodipodi:ry="1.8415179"
       sodipodi:rx="1.8415179"
       sodipodi:cy="823.3443"
       sodipodi:cx="4.5200896"
       sodipodi:type="arc"
       id="path928"
       style="opacity:1;fill:#ff0909;fill-opacity:1;stroke:none;stroke-width:0.9375;stroke-linecap:round;stroke-linejoin:round;stroke-miterlimit:4;stroke-dasharray:none;stroke-opacity:1;paint-order:fill markers stroke" />
    <g
       transform="matrix(0.05345512,0,0,0.05345512,62.155798,848.77662)"
       inkscape:export-ydpi="5.1167521"
       inkscape:export-xdpi="5.1167521"
       inkscape:export-filename="paint.png"
       id="g944">
      <rect
         style="opacity:0.98999999;fill:#787878;fill-opacity:1;stroke:none;stroke-width:3.9000001;stroke-linecap:round;stroke-linejoin:round;stroke-miterlimit:4;stroke-dasharray:none;stroke-opacity:0.78025477"
         id="rect932"
         width="542.85712"
         height="542.85712"
         x="-1148.5714"
         y="-107.63779"
         ry="80" />
      <path
         style="fill:#0500ad;fill-opacity:1;fill-rule:evenodd;stroke:none;stroke-width:0.78470004px;stroke-linecap:butt;stroke-linejoin:miter;stroke-opacity:1"
         d="m -789.74922,166.32602 189.71861,-192.604259 -10.61858,-50.591902 -29.73202,-26.627319 -29.02412,-1.77515 -150.07591,233.43281 z"
         id="path934"
         inkscape:connector-curvature="0"
         sodipodi:nodetypes="ccccccc" />
      <path
         style="fill:#3b3b3b;fill-opacity:1;fill-rule:evenodd;stroke:none;stroke-width:0.78470004px;stroke-linecap:butt;stroke-linejoin:miter;stroke-opacity:1"
         d="m -944.78048,348.27934 c 10.03196,-71.74943 -9.17433,-105.57608 34.68738,-182.8409 22.9991,-40.51427 86.10305,-50.52319 108.84426,-23.73355 20.62858,24.30091 6.44281,89.02516 -8.32173,108.94096 -29.65678,40.00383 -58.4402,12.99273 -89.90401,38.16582 -31.46374,25.17308 -45.3059,59.46767 -45.3059,59.46767 z"
         id="path936"
         inkscape:connector-curvature="0"
         sodipodi:nodetypes="cssszc" />
      <path
         style="fill:#ff0000;fill-opacity:1;fill-rule:evenodd;stroke:none;stroke-width:0.78470004px;stroke-linecap:butt;stroke-linejoin:miter;stroke-opacity:1"
         d="m -918.40125,172.37002 c -28.48826,30.84129 -16.73285,106.91466 -26.37958,175.90877 0,0 13.84265,-34.29412 45.30639,-59.4672 26.67511,-21.34181 54.25492,0.14321 79.24242,-18.81872 13.3761,-16.61552 1.13341,-56.53794 -11.99125,-78.81506 -19.40493,-32.93691 -57.68973,-49.64909 -86.17798,-18.80779 z"
         id="path938"
         inkscape:connector-curvature="0"
         sodipodi:nodetypes="zcscsz" />
      <path
         style="fill:#bcbcbc;fill-opacity:1;fill-rule:evenodd;stroke:none;stroke-width:0.78470004px;stroke-linecap:butt;stroke-linejoin:miter;stroke-opacity:1"
         d="m -823.02078,129.93535 c 3.53954,-2.66273 46.01384,-70.118598 46.01384,-70.118598 27.93041,6.705103 33.53263,15.685267 44.59804,50.591898 l -58.75614,59.46767 c -2.38254,-19.4446 -20.24996,-29.7477 -31.85574,-39.94097 z"
         id="path940"
         inkscape:connector-curvature="0"
         sodipodi:nodetypes="ccccc" />
      <rect
         ry="80"
         y="-107.63779"
         x="-1148.5714"
         height="542.85712"
         width="542.85712"
         id="rect942"
         style="opacity:0.98999999;fill:none;fill-opacity:1;stroke:#000000;stroke-width:20;stroke-linecap:round;stroke-linejoin:round;stroke-miterlimit:4;stroke-dasharray:none;stroke-opacity:1" />
    </g>
    <g
       transform="matrix(0.05345512,0,0,0.05345512,50.172374,850.45664)"
       inkscape:export-ydpi="5.1167517"
       inkscape:export-xdpi="5.1167517"
       inkscape:export-filename="paint_s.png"
       id="g950">
      <rect
         ry="80"
         y="-139.06636"
         x="-362.85712"
         height="542.85712"
         width="542.85712"
         id="rect946"
         style="opacity:0.98999999;fill:#d8d8d8;fill-opacity:1;stroke:#b3b3b3;stroke-width:3.9000001;stroke-linecap:round;stroke-linejoin:round;stroke-miterlimit:4;stroke-dasharray:none;stroke-opacity:1" />
      <rect
         style="opacity:0.98999999;fill:none;fill-opacity:1;stroke:#000000;stroke-width:20;stroke-linecap:round;stroke-linejoin:round;stroke-miterlimit:4;stroke-dasharray:none;stroke-opacity:1"
         id="rect948"
         width="542.85712"
         height="542.85712"
         x="-362.85712"
         y="-139.06636"
         ry="80" />
    </g>
    <path
       style="fill:#0500ad;fill-opacity:1;fill-rule:evenodd;stroke:none;stroke-width:0.04194624px;stroke-linecap:butt;stroke-linejoin:miter;stroke-opacity:1"
       d="m 49.128705,858.05056 10.14143,-10.29569 -0.567616,-2.70439 -1.589329,-1.42337 -1.551488,-0.0949 -8.022325,12.47818 z"
       id="path952"
       inkscape:connector-curvature="0"
       sodipodi:nodetypes="ccccccc" />
    <path
       style="fill:#3b3b3b;fill-opacity:1;fill-rule:evenodd;stroke:none;stroke-width:0.04194624px;stroke-linecap:butt;stroke-linejoin:miter;stroke-opacity:1"
       d="m 40.841491,867.77689 c 0.53626,-3.83537 -0.490414,-5.64358 1.854218,-9.77378 1.22942,-2.16569 4.602649,-2.70072 5.818283,-1.26868 1.102703,1.29901 0.344401,4.75885 -0.444839,5.82345 -1.585307,2.13841 -3.123928,0.69453 -4.805829,2.04016 -1.681898,1.34563 -2.421833,3.17885 -2.421833,3.17885 z"
       id="path954"
       inkscape:connector-curvature="0"
       sodipodi:nodetypes="cssszc" />
    <path
       style="fill:#ff0000;fill-opacity:1;fill-rule:evenodd;stroke:none;stroke-width:0.04194624px;stroke-linecap:butt;stroke-linejoin:miter;stroke-opacity:1"
       d="m 42.251596,858.37364 c -1.522843,1.64862 -0.894456,5.71513 -1.410123,9.40322 0,0 0.73996,-1.83319 2.421858,-3.17882 1.425921,-1.14083 2.900203,0.008 4.235913,-1.00596 0.715021,-0.88818 0.06059,-3.02224 -0.640994,-4.21307 -1.037293,-1.76065 -3.083811,-2.654 -4.606654,-1.00537 z"
       id="path956"
       inkscape:connector-curvature="0"
       sodipodi:nodetypes="zcscsz" />
    <path
       style="fill:#bcbcbc;fill-opacity:1;fill-rule:evenodd;stroke:none;stroke-width:0.04194624px;stroke-linecap:butt;stroke-linejoin:miter;stroke-opacity:1"
       d="m 47.35017,856.10529 c 0.189207,-0.14234 2.459675,-3.7482 2.459675,-3.7482 1.493024,0.35842 1.792491,0.83846 2.383994,2.7044 l -3.140816,3.17885 c -0.127359,-1.03942 -1.082464,-1.59017 -1.702853,-2.13505 z"
       id="path958"
       inkscape:connector-curvature="0"
       sodipodi:nodetypes="ccccc" />
    <path
       sodipodi:nodetypes="cc"
       inkscape:connector-curvature="0"
       id="path966"
       d="m 33.649554,856.49161 c -0.05965,4.98717 -0.209221,9.57587 6.026785,12.5558"
       style="fill:none;fill-rule:evenodd;stroke:#ff1111;stroke-width:3.9375;stroke-linecap:round;stroke-linejoin:miter;stroke-miterlimit:4;stroke-dasharray:none;stroke-opacity:1" />
    <path
       style="fill:none;fill-rule:evenodd;stroke:#ff1111;stroke-width:3.9375;stroke-linecap:round;stroke-linejoin:miter;stroke-miterlimit:4;stroke-dasharray:none;stroke-opacity:1"
       d="m 3.6830363,856.49161 c -0.05965,4.98717 -0.209221,9.57587 6.026785,12.5558"
       id="path968"
       inkscape:connector-curvature="0"
       sodipodi:nodetypes="cc" />
    <path
       d="m 33.88409,829.87455 a 1.8415179,1.8415179 0 0 1 1.773325,1.90294 1.8415179,1.8415179 0 0 1 -1.898617,1.77795 1.8415179,1.8415179 0 0 1 -1.78257,-1.89428 1.8415179,1.8415179 0 0 1 1.889937,-1.78718 l -0.0492,1.84086 z"
       sodipodi:end="4.73911"
       sodipodi:start="4.7488489"
       sodipodi:ry="1.8415179"
       sodipodi:rx="1.8415179"
       sodipodi:cy="831.71484"
       sodipodi:cx="33.816963"
       sodipodi:type="arc"
       id="path970"
       style="opacity:1;fill:#ff0909;fill-opacity:1;stroke:none;stroke-width:0.9375;stroke-linecap:round;stroke-linejoin:round;stroke-miterlimit:4;stroke-dasharray:none;stroke-opacity:1;paint-order:fill markers stroke" />
    <path
       style="opacity:1;fill:#ff0909;fill-opacity:1;stroke:none;stroke-width:0.9375;stroke-linecap:round;stroke-linejoin:round;stroke-miterlimit:4;stroke-dasharray:none;stroke-opacity:1;paint-order:fill markers stroke"
       id="path972"
       sodipodi:type="arc"
       sodipodi:cx="38.671875"
       sodipodi:cy="837.74164"
       sodipodi:rx="1.8415179"
       sodipodi:ry="1.8415179"
       sodipodi:start="4.7488489"
       sodipodi:end="4.73911"
       d="m 38.739002,835.90134 a 1.8415179,1.8415179 0 0 1 1.773325,1.90294 1.8415179,1.8415179 0 0 1 -1.898617,1.77796 1.8415179,1.8415179 0 0 1 -1.78257,-1.89429 1.8415179,1.8415179 0 0 1 1.889936,-1.78717 l -0.0492,1.84086 z" />
    <path
       style="opacity:1;fill:#ff0909;fill-opacity:1;stroke:none;stroke-width:0.9375;stroke-linecap:round;stroke-linejoin:round;stroke-miterlimit:4;stroke-dasharray:none;stroke-opacity:1;paint-order:fill markers stroke"
       id="path974"
       sodipodi:type="arc"
       sodipodi:cx="33.816963"
       sodipodi:cy="823.67914"
       sodipodi:rx="1.8415179"
       sodipodi:ry="1.8415179"
       sodipodi:start="4.7488489"
       sodipodi:end="4.73911"
       d="m 33.88409,821.83884 a 1.8415179,1.8415179 0 0 1 1.773325,1.90294 1.8415179,1.8415179 0 0 1 -1.898617,1.77796 1.8415179,1.8415179 0 0 1 -1.78257,-1.89429 1.8415179,1.8415179 0 0 1 1.889937,-1.78717 l -0.0492,1.84086 z" />
  </g>
</svg>
