<svg height="69" viewBox="0 0 884.99998 312.23336" width="187" xmlns="http://www.w3.org/2000/svg"><path d="m435.0375 98.735c-16.39125.0-29.20875 5.16075-38.465 15.48125-9.26338 10.32513-13.88625 23.72625-13.88625 40.225.0 19.37125 4.73213 34.05625 14.19625 44.05875 9.481 10.00138 21.92875 14.99625 37.36125 14.99625 8.29913.0 15.665-.71548 22.10125-2.15337 6.44275-1.43225 10.72525-2.90175 12.85625-4.389l.63904-49.94875c0-2.9025-7.66113-4.22188-16.25375-4.36888-8.59313-.1329-18.4275 1.659-18.4275 1.659v16.7725h9.8895l-.10988 7.47625c0 2.76963-2.74575 4.16013-8.2215 4.16013-5.48275.0-10.32525-2.32038-14.52625-6.95063-4.21037-4.63587-6.30437-11.41337-6.30437-20.3425.0-8.948 2.046-15.54375 6.14325-19.80125 4.08875-4.25275 9.44925-6.38675 16.04125-6.38675 2.76962.0 5.637.44673 8.61875 1.35863 2.98312.90341 4.97462 1.75012 5.99125 2.54337 1.00805.81578 1.96662 1.203 2.87287 1.203.90202.0 2.36325-1.05624 4.3835-3.18975 2.02325-2.12775 3.8355-5.35212 5.43463-9.6515 1.592-4.322 2.3895-7.635 2.3895-9.98475.0-2.33137-.0524-3.93812-.15564-4.78637-2.23525-2.44588-6.36075-4.38613-12.37787-5.82825-6.00588-1.43788-12.74-2.151505-20.18875-2.151505zm97.93.0c-15.05875.0-27.3525 4.84225-36.875 14.51875-9.52062 9.68888-14.28 23.9175-14.28 42.70875.0 18.78125 4.70663 33.0675 14.115 42.8575 9.42162 9.78225 21.61 14.67375 36.55875 14.67375 14.955.0 27.15875-4.70263 36.63375-14.11 9.47537-9.42738 14.20875-23.79375 14.20875-43.10875.0-19.3-4.6265-33.73-13.89375-43.25-9.25062-9.53763-21.41125-14.29125-36.4675-14.29125zm211.7.0c-15.06375.0-27.35 4.84225-36.88125 14.51875-9.51925 9.68888-14.27875 23.9175-14.27875 42.70875.0 18.78125 4.70812 33.0675 14.12875 42.8575 9.41325 9.78225 21.59375 14.67375 36.5475 14.67375 14.94875.0 27.1625-4.70263 36.63375-14.11 9.474-9.42738 14.20875-23.79375 14.20875-43.10875.0-19.3-4.62625-33.73-13.88625-43.25-9.26187-9.53763-21.41375-14.29125-36.4725-14.29125zm-140.0625 1.42825c-2.13487.0-3.86162.77861-5.18925 2.31263-1.336 1.558-1.99775 3.65862-1.99775 6.32075v95.76375c0 4.89887 2.71925 7.34074 8.14275 7.34074h27.28875c33.415.0 50.12875-19.57625 50.12875-58.73875.0-18.30624-4.393-31.70749-13.18-40.21875-8.77137-8.514-21.62-12.78125-38.53625-12.78125zm199.15.0c-1.81112.0-3.08825 2.45888-3.8305 7.3535-.31951 2.33987-.47241 4.74037-.47241 7.17775.0 2.4515.1529 4.84213.47241 7.17775.74226 4.90738 2.0195 7.34988 3.8305 7.34988h19.15125v80.13625c0 2.11512 5.2755 3.18787 15.80625 3.18787 10.54.0 15.8025-1.0728 15.8025-3.18787v-80.13625h18.67625c1.80825.0 3.08063-2.4425 3.83425-7.34988.31245-2.33562.47424-4.72612.47424-7.17775.0-2.43738-.16179-4.83787-.47424-7.17775-.75356-4.89463-2.026-7.3535-3.83425-7.3535zm-271.2 29.22c5.11237.0 9.39637 2.286 12.85 6.8555 3.45825 4.57512 5.19287 11.12687 5.19287 19.6375.0 8.51825-1.67962 15.06125-5.03175 19.6325-3.35212 4.58787-7.71775 6.87375-13.08999 6.87375-5.37538.0-9.7075-2.25913-13.00626-6.79325-3.30412-4.52-4.95299-11.00575-4.95299-19.47875.0-8.45463 1.73437-15.025 5.1855-19.70625 3.4695-4.67687 7.74687-7.02213 12.8525-7.02213zm211.7.0c5.11238.0 9.39075 2.286 12.85 6.8555 3.45825 4.57512 5.18925 11.12687 5.18925 19.6375.0 8.51825-1.67813 15.06125-5.03175 19.6325-3.34788 4.58787-7.71625 6.87375-13.09 6.87375-5.37538.0-9.71175-2.25913-13.00625-6.79325-3.29425-4.52-4.9475-11.00575-4.9475-19.47875.0-8.45463 1.72663-15.025 5.17637-19.70625 3.46388-4.67687 7.75275-7.02213 12.86001-7.02213zm-116.19875 1.10596h1.59662c6.81038.0 11.7875 1.55725 14.93 4.6435 3.12738 3.07788 4.70026 9.70425 4.70026 19.8725 1e-5 10.16388-1.50351 17.42-4.54463 21.77875-3.034 4.363-7.47125 6.5515-13.33 6.5515-1.592.0-2.5525-.294-2.86925-.88073-.31951-.58957-.48339-1.99463-.48339-4.22425z" fill="#eee" stroke-width="1.25"/><path d="m303.4125 210.0225s-.45949-2.81912-.72811-2.79375l-51.155 4.93563c-4.07038.39303-7.23163 3.63912-7.51725 7.718l-1.40538 20.1425-39.575 2.82337-2.69187-18.255c-.59947-4.0605-4.14525-7.12137-8.24963-7.12137h-53.99125c-4.10287.0-7.64875 3.06087-8.24825 7.12137l-2.69337 18.255-39.575002-2.82337-1.405376-20.1425c-.285599-4.08025-3.446874-7.32638-7.51725-7.7195l-51.18-4.93425c-.264387-.0255-.458075 2.79649-.722462 2.79649l-.06925 11.07025 43.345 6.98988 1.4195 20.3225c.287 4.11425 3.606625 7.44088 7.723625 7.73638l54.503755 3.888c.20642.0141.41001.0226.6136.0226 4.09587.0 7.636-3.06237 8.2355-7.12275l2.76962-18.78375h39.59375l2.76963 18.78375c.59803 4.05913 4.1425 7.12138 8.244 7.12138.20076.0.40152-.007.59805-.0213l54.51125-3.888c4.11562-.29549 7.43662-3.62225 7.72362-7.73638l1.418-20.3225 43.32625-7.021z" fill="#fff" stroke-width="1.25"/><g stroke-width=".9375"><path d="m133.04062 7.4975c-14.39812 3.200906-28.64156 7.656188-41.995308 14.3775.305391 11.790937 1.067625 23.08875 2.612907 34.564687-5.185875 3.3225-10.635938 6.174094-15.48 10.063125-4.9215 3.786188-9.94875 7.409719-14.404688 11.837813-8.902781-5.888531-18.324375-11.4225-28.03125-16.307813C25.278844 73.294062 15.494156 85.44875 7.5019687 99.049063 13.514906 108.77656 19.792594 117.89375 26.570719 126.54594h.188597V210.02c.15269 94e-5.306487.008.457762.0219l51.174375 4.93284c2.680594.25873 4.781063 2.41688 4.967625 5.10319l1.578375 22.59 44.639067 3.186 3.07434-20.85c.39868-2.70319 2.71856-4.70578 5.45287-4.70578h53.99063c2.73291.0 5.05237 2.00259 5.451 4.70578l3.07434 20.85 44.64094-3.186 1.5765-22.59c.18804-2.68622 2.28703-4.84303 4.96763-5.10319l51.15375-4.93284c.15127-.0142.30324-.0204.45592-.0219v-6.66141l.0219-.007v-76.80562h.18859c6.77925-8.65256 13.05282-17.77031 19.06875-27.496876-7.98946-13.60125-17.77875-25.755938-28.24218-37.01625-9.70407 4.88475-19.13063 10.418437-28.03313 16.307812-4.4549-4.428094-9.4725-8.051531-14.40093-11.837812-4.84238-3.889407-10.30032-6.741-15.47626-10.063125 1.54107-11.475938 2.30429-22.77375 2.61113-34.564688-13.35465-6.721812-27.59715-11.177375-42.00277-14.3779998-5.75138 9.6665628-11.01094 20.1328128-15.59157 30.3665628-5.43187-.907678-10.88906-1.244157-16.35281-1.309219v-.0073c-.0382.0-.0737.0073-.1062.0073-.0338.0-.0704-.0073-.10437-.0073v.0073c-5.47434.065-10.9275.401531-16.36031 1.309219-4.57791-10.232813-9.83344-20.7-15.59344-30.3665628zM26.671875 221.06c.02125 4.9455.08423 10.36313.08423 11.44219.0 48.59812 61.65 71.95687 138.243745 72.22594h.1886c76.59469-.26864 138.225-23.62782 138.225-72.22594.0-1.09856.0671-6.49388.0897-11.44219l-45.9975 4.43663-1.58569 22.71093c-.19087 2.73713-2.36785 4.91578-5.10497 5.11228l-54.51094 3.88913c-.1329.01-.26585.0146-.39733.0146-2.70891.0-5.04544-1.98928-5.44556-4.70943l-3.12563-21.19782h-44.47781l-3.12562 21.19782c-.41991 2.85309-2.97 4.90547-5.84288 4.69481l-54.510932-3.88913c-2.737125-.19651-4.914094-2.37515-5.104969-5.11228l-1.583891-22.71091-46.01625-4.43663z" fill="#478cbf"/><path d="m92.552813 129.60687c-17.025001.0-30.835313 13.79626-30.835313 30.82407.0 17.03906 13.809375 30.84187 30.835312 30.84187 17.033438.0 30.839998-13.80281 30.839998-30.84187.0-17.02782-13.80656-30.82407-30.839997-30.82407zm145.087497.0c-17.03625.0-30.84187 13.79626-30.84187 30.82407.0 17.03906 13.80562 30.84187 30.84187 30.84187 17.02406.0 30.83156-13.80281 30.83156-30.84187.0-17.02782-13.8075-30.82407-30.83156-30.82407zM165.09 147.64438c-5.48278.0-9.92625 4.04493-9.92625 9.02156v28.39031c0 4.98084 4.44337 9.02156 9.92625 9.02156 5.48287.0 9.9375-4.04072 9.9375-9.02156v-28.39031c0-4.97663-4.45434-9.02156-9.9375-9.02156z" fill="#fff"/><path d="m95.503125 141.79437c-11.305312.0-20.469375 9.16913-20.469375 20.47125.0 11.30213 9.164438 20.46188 20.469375 20.46188 11.310935.0 20.471255-9.15994 20.471255-20.46188.0-11.30193-9.16069-20.47125-20.471255-20.47125zm139.181255.0c-11.30251.0-20.46001 9.16913-20.46001 20.47125.0 11.30213 9.15816 20.46188 20.46001 20.46188 11.31375.0 20.46937-9.15994 20.46937-20.46188.0-11.30193-9.156-20.47125-20.46937-20.47125z" fill="#414042"/></g></svg>