<svg width="32" height="32" xmlns="http://www.w3.org/2000/svg" xmlns:xlink="http://www.w3.org/1999/xlink">
  <defs/>
  <g>
    <path stroke="none" fill="#000000" d="M27.2 4.9 Q28 5.6 28 7.05 L28 12.25 Q28.15 13.75 27.25 14.6 26.4 15.45 25 15.45 23.8 15.45 22.9 14.6 L21.05 12.75 Q22 14.2 22 16 22 17.6 21.25 18.9 L22.8 17.4 22.7 17.55 Q23.45 16.5 24.95 16.5 L25.2 16.5 Q26.4 16.65 27.1 17.4 28.05 18.4 28 19.55 L27.95 24.9 Q27.95 26.25 27.1 27.1 26.25 27.95 24.9 27.95 L19.6 28 Q18.4 28.15 17.35 27.15 16.55 26.5 16.5 25.2 16.35 23.6 17.5 22.75 L17.35 22.85 18.9 21.25 Q17.6 22 16 22 14.45 22 13.15 21.3 L14.7 22.85 14.55 22.75 Q15.65 23.6 15.5 25.2 15.45 26.5 14.7 27.15 13.6 28.15 12.4 28 L7.15 27.95 Q5.75 27.95 4.95 27.1 4.05 26.25 4.05 24.9 L4 19.55 Q3.95 18.4 4.95 17.4 5.6 16.65 6.85 16.5 L7.05 16.5 Q8.6 16.5 9.35 17.55 L9.25 17.4 10.7 18.85 Q10 17.55 10 16 10 14.2 10.9 12.8 L9.1 14.6 9.15 14.6 Q8.2 15.45 7 15.45 5.6 15.45 4.8 14.6 3.85 13.75 4 12.25 L4 7.05 Q4 5.6 4.85 4.9 5.65 4 7.05 4 L12.45 4 Q13.6 3.95 14.55 4.9 L14.4 4.8 Q15.3 5.45 15.45 6.8 L15.45 7.25 Q15.3 8.3 14.7 9.05 L14.55 9.2 12.85 10.85 Q14.25 10 16 10 17.8 10 19.2 10.9 L17.45 9.2 17.35 9.05 Q16.7 8.3 16.55 7.25 L16.55 6.8 Q16.7 5.45 17.65 4.8 L17.5 4.9 Q18.4 3.95 19.55 4 L24.95 4 Q26.35 4 27.2 4.9 M24.85 25.95 Q25.35 25.95 25.65 25.65 L25.95 24.85 26 19.55 25.65 18.8 24.95 18.5 Q24.45 18.5 24.2 18.8 L18.75 24.25 Q18.45 24.5 18.5 24.95 18.5 25.45 18.75 25.7 19.1 26.05 19.5 26 L24.85 25.95 M26 7.05 L25.75 6.3 Q25.45 6 24.95 6 L19.55 6 Q19.2 6 18.9 6.3 L18.55 7 18.85 7.75 24.3 13.15 25 13.45 Q25.5 13.45 25.8 13.15 L26 12.45 26 7.05 M6 7.05 L6 12.45 Q5.95 12.9 6.2 13.15 6.5 13.45 7 13.45 L7.7 13.15 13.15 7.75 13.45 7 13.1 6.3 12.45 6 7.05 6 Q6.55 6 6.25 6.3 6 6.55 6 7.05 M7.15 25.95 L12.5 26 Q12.9 26.05 13.25 25.7 L13.5 24.95 Q13.55 24.5 13.25 24.25 L7.8 18.8 Q7.55 18.5 7.05 18.5 L6.35 18.8 Q6 19.15 6 19.55 L6.05 24.85 Q6.05 25.35 6.35 25.65 L7.15 25.95 M16 20 Q17.65 20 18.8 18.8 20 17.65 20 16 20 14.35 18.8 13.15 17.65 12 16 12 14.35 12 13.15 13.15 12 14.35 12 16 12 17.65 13.15 18.8 14.35 20 16 20"/>
    <path stroke="none" fill="#FFFFFF" d="M16 20 Q14.35 20 13.15 18.8 12 17.65 12 16 12 14.35 13.15 13.15 14.35 12 16 12 17.65 12 18.8 13.15 20 14.35 20 16 20 17.65 18.8 18.8 17.65 20 16 20 M26 7.05 L26 12.45 25.8 13.15 Q25.5 13.45 25 13.45 L24.3 13.15 18.85 7.75 18.55 7 18.9 6.3 Q19.2 6 19.55 6 L24.95 6 Q25.45 6 25.75 6.3 L26 7.05 M24.85 25.95 L19.5 26 Q19.1 26.05 18.75 25.7 18.5 25.45 18.5 24.95 18.45 24.5 18.75 24.25 L24.2 18.8 Q24.45 18.5 24.95 18.5 L25.65 18.8 26 19.55 25.95 24.85 25.65 25.65 Q25.35 25.95 24.85 25.95 M7.15 25.95 L6.35 25.65 Q6.05 25.35 6.05 24.85 L6 19.55 Q6 19.15 6.35 18.8 L7.05 18.5 Q7.55 18.5 7.8 18.8 L13.25 24.25 Q13.55 24.5 13.5 24.95 L13.25 25.7 Q12.9 26.05 12.5 26 L7.15 25.95 M6 7.05 Q6 6.55 6.25 6.3 6.55 6 7.05 6 L12.45 6 13.1 6.3 13.45 7 13.15 7.75 7.7 13.15 7 13.45 Q6.5 13.45 6.2 13.15 5.95 12.9 6 12.45 L6 7.05"/>
  </g>
</svg>